
  <svg width="835.5" height="104.25" viewBox="0 0 4456 556" fill="none" xmlns="http://www.w3.org/2000/svg" xmlns:xlink="http://www.w3.org/1999/xlink" version="1.1">
    
        <g transform="translate(0, 0)">
          <svg xmlns="http://www.w3.org/2000/svg" width="256" height="256" fill="none" viewBox="0 0 256 256"><rect width="256" height="256" fill="#953CAD" rx="60"/><path fill="#fff" d="M195.436 100.668V114.142H208.91V100.668H215.647V114.142H229.12V120.879H215.647V134.352H229.12V141.089H215.647V154.563H208.91V141.089H195.436V154.563H188.699V141.089H175.226V134.352H188.699V120.879H175.226V114.142H188.699V100.668H195.436ZM208.91 120.879H195.436V134.352H208.91V120.879Z"/><path fill="#fff" d="M122.001 33C157.144 33 187.828 52.0863 204.262 80.4561L204.102 80.183L162.753 103.991C154.607 90.1977 139.672 80.8892 122.54 80.6975L122.001 80.6945C95.875 80.6945 74.6945 101.874 74.6945 127.999C74.6945 136.543 76.9723 144.552 80.9335 151.469C89.0876 165.704 104.416 175.306 122.001 175.306C139.693 175.306 155.109 165.582 163.222 151.195L163.025 151.54L204.311 175.458C188.057 203.588 157.794 222.615 123.059 222.994L122.001 223C86.746 223 55.9753 203.796 39.582 175.276C31.5791 161.353 27 145.212 27 127.999C27 75.5334 69.5323 33 122.001 33Z"/></svg>
        </g>
         
        <g transform="translate(300, 0)">
          <svg xmlns="http://www.w3.org/2000/svg" width="256" height="256" fill="none" viewBox="0 0 256 256"><rect width="256" height="256" fill="#512BD4" rx="60"/><path fill="#fff" d="M24.0522 168.943C21.8155 168.943 19.9143 168.212 18.3486 166.749C16.7829 165.248 16 163.466 16 161.402C16 159.301 16.7829 157.5 18.3486 155.999C19.9143 154.499 21.8155 153.748 24.0522 153.748C26.3262 153.748 28.246 154.499 29.8118 155.999C31.4147 157.5 32.2162 159.301 32.2162 161.402C32.2162 163.466 31.4147 165.248 29.8118 166.749C28.246 168.212 26.3262 168.943 24.0522 168.943Z"/><path fill="#fff" d="M113.467 167.705H98.9285L60.625 108.387C59.6558 106.886 58.8539 105.328 58.2205 103.715H57.8848C58.1831 105.441 58.3322 109.137 58.3322 114.802V167.705H45.4707V87H60.96L97.9781 144.912C99.5439 147.314 100.55 148.964 100.998 149.865H101.221C100.849 147.726 100.662 144.106 100.662 139.002V87H113.467V167.705Z"/><path fill="#fff" d="M176.098 167.705H131.084V87H174.309V98.3688H144.393V121.218H171.961V132.53H144.393V156.393H176.098V167.705Z"/><path fill="#fff" d="M240.071 98.3688H217.033V167.705H203.724V98.3688H180.742V87H240.071V98.3688Z"/></svg>
        </g>
         
        <g transform="translate(600, 0)">
          <svg xmlns="http://www.w3.org/2000/svg" width="256" height="256" fill="none" viewBox="0 0 256 256">
            <rect fill="#f4f2ed" width="256" height="256" rx="60" />
            <path fill="#0c2c65"
                d="M45.88,79.51,41,66.36H21.9L17.12,79.51H12.53L29.47,35h4.16L50.47,79.51ZM32.32,42.82c-.14-.4-.29-.85-.45-1.37a13.56,13.56,0,0,1-.38-1.77h-.13a15,15,0,0,1-.42,1.77c-.15.52-.3,1-.45,1.37L23.3,62.61H39.58Z" />
            <path fill="#0c2c65"
                d="M57.14,73a15,15,0,0,0,2.47,1.5,19.69,19.69,0,0,0,5.59,1.8,16.58,16.58,0,0,0,2.73.23c3.37,0,5.9-.65,7.57-2A6.67,6.67,0,0,0,78,69a7.57,7.57,0,0,0-.59-3.09,7.88,7.88,0,0,0-1.83-2.47,19.82,19.82,0,0,0-3.14-2.28Q70.57,60,68,58.57a55.75,55.75,0,0,1-4.89-2.93,18.19,18.19,0,0,1-3.32-2.82A9.4,9.4,0,0,1,57.9,49.7a11.24,11.24,0,0,1-.61-3.81,10.15,10.15,0,0,1,1.15-4.84,11.44,11.44,0,0,1,3.1-3.65,14.51,14.51,0,0,1,4.58-2.31,19.19,19.19,0,0,1,5.6-.8,23.2,23.2,0,0,1,8.78,1.45V40.3A18.25,18.25,0,0,0,71.25,38a14,14,0,0,0-3.73.48,9.63,9.63,0,0,0-3.07,1.41,6.76,6.76,0,0,0-2.08,2.31,6.51,6.51,0,0,0-.76,3.21,8,8,0,0,0,.51,3,7.29,7.29,0,0,0,1.64,2.37,16.35,16.35,0,0,0,3,2.22q1.85,1.1,4.51,2.53a50.57,50.57,0,0,1,4.87,2.9,18.83,18.83,0,0,1,3.46,2.94,10.82,10.82,0,0,1,2.06,3.26,10.2,10.2,0,0,1,.69,3.83,11.56,11.56,0,0,1-1.09,5.13,10,10,0,0,1-3,3.68,13.72,13.72,0,0,1-4.65,2.2,22.13,22.13,0,0,1-5.93.75,22.92,22.92,0,0,1-2.51-.17c-1-.12-2-.28-2.94-.5a27.91,27.91,0,0,1-2.84-.78,10.38,10.38,0,0,1-2.19-1Z" />
            <path fill="#0c2c65"
                d="M97.06,62.2V79.51H92.94V35h11.47a20.25,20.25,0,0,1,6.21.87,12.72,12.72,0,0,1,4.56,2.51,10.58,10.58,0,0,1,2.82,4,14.61,14.61,0,0,1,1,5.46,14.92,14.92,0,0,1-1.08,5.73,13.22,13.22,0,0,1-3.12,4.53,14.31,14.31,0,0,1-5,3,18.9,18.9,0,0,1-6.61,1.07Zm0-23.39V58.42H103c3.82,0,6.73-.89,8.71-2.67a9.58,9.58,0,0,0,3-7.54q0-9.39-11-9.4Z" />
            <path fill="#0c2c65"
                d="M124.45,80.13a3,3,0,0,1-3-3,2.94,2.94,0,0,1,.85-2.14,2.9,2.9,0,0,1,2.12-.87,2.85,2.85,0,0,1,1.17.24,3,3,0,0,1,.94.62,2.88,2.88,0,0,1,.9,2.15,2.85,2.85,0,0,1-.24,1.17,3.18,3.18,0,0,1-.66.94,3.07,3.07,0,0,1-.94.64A2.84,2.84,0,0,1,124.45,80.13Z" />
            <path fill="#0c2c65"
                d="M168.68,79.51,144,43.81c-.31-.45-.62-.92-.92-1.4a8.4,8.4,0,0,1-.72-1.39h-.16c0,.37.08.89.11,1.55s0,1.49,0,2.48V79.51h-4.13V35h4.56L167.07,70.3c.37.56.7,1.08,1,1.56l.82,1.36h.15c-.08-.69-.14-1.45-.18-2.3s-.07-1.79-.07-2.82V35H173V79.51Z" />
            <path fill="#0c2c65"
                d="M185.52,79.51V35H207.2v3.78H189.64V55.13H205.9v3.72H189.64V75.76h18.55v3.75Z" />
            <path fill="#0c2c65" d="M230.63,38.81v40.7H226.5V38.81H213.69V35h29.78v3.78Z" />
            <path fill="#0c2c65"
                d="M163.45,147.11a9.71,9.71,0,0,0-5.93-1.69,10.08,10.08,0,0,0-4.6,1,11.55,11.55,0,0,0-3.5,2.68,15.93,15.93,0,0,0-2.56,3.91,25.5,25.5,0,0,0-1.69,4.64,33.44,33.44,0,0,0-.92,4.85,43.12,43.12,0,0,0-.29,4.66v25.63h-6.49V140.4H144v11.2h.21a23.66,23.66,0,0,1,2.33-5.13,16,16,0,0,1,3.25-3.84,13.47,13.47,0,0,1,4-2.38,13,13,0,0,1,4.57-.82,17.28,17.28,0,0,1,2.85.21,10.6,10.6,0,0,1,2.27.61Z" />
            <path fill="#0c2c65"
                d="M175.76,167.77a28.86,28.86,0,0,0,1.28,8.65,18.23,18.23,0,0,0,3.53,6.5,15,15,0,0,0,5.6,4.06,18.76,18.76,0,0,0,7.44,1.41q8.87,0,16.73-6.19v6.45Q202.83,194,192.13,194a24.19,24.19,0,0,1-9.57-1.84,19.75,19.75,0,0,1-7.31-5.35,24.23,24.23,0,0,1-4.65-8.62A37.94,37.94,0,0,1,169,166.54a32.23,32.23,0,0,1,1.78-10.89,27,27,0,0,1,5-8.67,22.65,22.65,0,0,1,7.52-5.73,21.85,21.85,0,0,1,9.51-2.07,21.42,21.42,0,0,1,9,1.77,17.46,17.46,0,0,1,6.52,5,22.87,22.87,0,0,1,4,8,37.43,37.43,0,0,1,1.38,10.54v3.27ZM206.87,162c-.1-5.45-1.41-9.68-3.9-12.68s-5.95-4.51-10.38-4.51a15.92,15.92,0,0,0-6.17,1.18,14.92,14.92,0,0,0-5,3.4,18.25,18.25,0,0,0-3.55,5.43,26.88,26.88,0,0,0-2,7.18Z" />
            <path fill="#0c2c65"
                d="M63.18,201.07a49.05,49.05,0,0,1-14.31-35.89,47.88,47.88,0,0,1,14.31-35.69,49.49,49.49,0,0,1,70,.12l4.17-4.32a55.81,55.81,0,0,0-78.75-.18,57.5,57.5,0,0,0-16.24,40.07,55.65,55.65,0,0,0,95,40.24l-4.17-4.28A49.49,49.49,0,0,1,63.18,201.07Z" />
            <path fill="#40ccf4"
                d="M97.36,185.21a19.14,19.14,0,0,1-7.45-1.39,15.82,15.82,0,0,1-5.63-3.92,17.15,17.15,0,0,1-3.57-6.07A23.66,23.66,0,0,1,79.46,166a24.76,24.76,0,0,1,1.32-8.35,17.82,17.82,0,0,1,3.73-6.25,16.06,16.06,0,0,1,5.85-3.91A20.77,20.77,0,0,1,98,146.13a19,19,0,0,1,7.29,1.33,14.84,14.84,0,0,1,5.5,3.85,17.19,17.19,0,0,1,3.47,6.12,26.2,26.2,0,0,1,1.2,8.2,23.86,23.86,0,0,1-1.26,8,17.83,17.83,0,0,1-3.59,6.18,15.93,15.93,0,0,1-5.68,4A19.23,19.23,0,0,1,97.36,185.21Z" />
        </svg>
        </g>
         
        <g transform="translate(900, 0)">
          <svg xmlns="http://www.w3.org/2000/svg" width="256" height="256" fill="none" viewBox="0 0 256 256">
            <rect width="256" height="256" fill="#68217a" rx="60" />
            <path fill="#fff"
                d="M163.45,157a9.71,9.71,0,0,0-5.93-1.69,10.08,10.08,0,0,0-4.6,1,11.55,11.55,0,0,0-3.5,2.68,16.12,16.12,0,0,0-2.56,3.91,25.5,25.5,0,0,0-1.69,4.64,33.57,33.57,0,0,0-.92,4.86A42.79,42.79,0,0,0,144,177v25.63h-6.49V150.24H144v11.21h.21a23.53,23.53,0,0,1,2.33-5.14,16,16,0,0,1,3.25-3.84,13.68,13.68,0,0,1,4-2.38,13,13,0,0,1,4.57-.82,17.28,17.28,0,0,1,2.85.21,11.21,11.21,0,0,1,2.27.61Z" />
            <path fill="#fff"
                d="M175.76,177.61a28.86,28.86,0,0,0,1.28,8.65,18.23,18.23,0,0,0,3.53,6.5,15.08,15.08,0,0,0,5.6,4.07,18.94,18.94,0,0,0,7.44,1.4q8.87,0,16.73-6.19v6.45q-7.51,5.37-18.21,5.37a24.19,24.19,0,0,1-9.57-1.84,19.75,19.75,0,0,1-7.31-5.35,24.15,24.15,0,0,1-4.65-8.62A37.92,37.92,0,0,1,169,176.39a32.24,32.24,0,0,1,1.78-10.9,27.13,27.13,0,0,1,5-8.67,22.65,22.65,0,0,1,7.52-5.73,21.85,21.85,0,0,1,9.51-2.07,21.42,21.42,0,0,1,9,1.77,17.46,17.46,0,0,1,6.52,5,22.87,22.87,0,0,1,4,8,37.43,37.43,0,0,1,1.38,10.54v3.27Zm31.11-5.72c-.1-5.46-1.41-9.69-3.9-12.69s-5.95-4.5-10.38-4.5a16.1,16.1,0,0,0-6.17,1.17,14.92,14.92,0,0,0-5,3.4,18.25,18.25,0,0,0-3.55,5.43,26.85,26.85,0,0,0-2,7.19Z" />
            <path fill="#fff"
                d="M63.18,210.91A49,49,0,0,1,48.87,175a47.88,47.88,0,0,1,14.31-35.7,49.49,49.49,0,0,1,70,.12l4.17-4.32A55.81,55.81,0,0,0,58.62,135,57.51,57.51,0,0,0,42.38,175a55.65,55.65,0,0,0,95,40.23L133.2,211A49.49,49.49,0,0,1,63.18,210.91Z" />
            <path fill="#40ccf4"
                d="M97.36,195.05a19.14,19.14,0,0,1-7.45-1.39,15.82,15.82,0,0,1-5.63-3.92,17.19,17.19,0,0,1-3.57-6.06,23.74,23.74,0,0,1-1.25-7.84,24.78,24.78,0,0,1,1.32-8.36,17.68,17.68,0,0,1,3.73-6.24,16,16,0,0,1,5.85-3.92A20.77,20.77,0,0,1,98,156a19,19,0,0,1,7.29,1.33,14.84,14.84,0,0,1,5.5,3.85,17.19,17.19,0,0,1,3.47,6.12,26.2,26.2,0,0,1,1.2,8.2,23.86,23.86,0,0,1-1.26,8,17.74,17.74,0,0,1-3.59,6.18,15.93,15.93,0,0,1-5.68,4A19.23,19.23,0,0,1,97.36,195.05Z" />
            <path fill="#fff" d="M124.58,96.42H87.47v-70H123v7.42H95.68v23.3H121v7.37H95.68V89h28.9Z" />
            <path fill="#fff" d="M173.61,33.82H146.26V58h25.29v7.38H146.26v31h-8.2v-70h35.55Z" />
        </svg>

        </g>
         
        <g transform="translate(1200, 0)">
          <svg xmlns="http://www.w3.org/2000/svg" width="256" height="256" fill="none" viewBox="0 0 256 256">
            <rect fill="#f4f2ed" width="256" height="256" rx="60" />
            <path fill="#5c2d91"
                d="M226.47,95.55A115.78,115.78,0,0,1,113,193.08a84.57,84.57,0,0,1-16.6-1,50.85,50.85,0,0,1-42.29-47.94,49.38,49.38,0,0,1,98.74-.69c.2,8.18-3.34,15.37-10.62,15.57-7.79,0-11.44-5.56-11.44-13v-20.8a12.74,12.74,0,0,0-12.64-12.75H100.67A30.36,30.36,0,1,0,123.1,163l.6-.91.61,1a21.5,21.5,0,0,0,18.32,8.73A24.2,24.2,0,0,0,165,146.52a65.88,65.88,0,0,0-1.8-16.08A61.61,61.61,0,0,0,41.43,143.78a62.37,62.37,0,0,0,60.8,61.6,96.8,96.8,0,0,0,9.72.31,131.6,131.6,0,0,0,70.51-21.05c.3-.19.6.2.4.51a103.52,103.52,0,0,1-80.63,33,72.77,72.77,0,0,1-74.06-74.65A75.36,75.36,0,0,1,58.42,83.17a73.81,73.81,0,0,1,43.51-14.36h23.4a65.87,65.87,0,0,0,48.59-21.45.93.93,0,0,1,1.61.71,66,66,0,0,1-10.21,29.54.92.92,0,0,0,1,1.32,70.75,70.75,0,0,0,49.2-40.57,1.24,1.24,0,0,1,1.71-.42,1.3,1.3,0,0,1,.42.42,89.63,89.63,0,0,1,8.81,57.2Zm-125.86,29a18.12,18.12,0,1,0,18.11,18.12v-16.9a1.31,1.31,0,0,0-1.25-1.25Z" />
        </svg>

        </g>
         
        <g transform="translate(1500, 0)">
          <svg xmlns="http://www.w3.org/2000/svg" width="256" height="256" fill="none" viewBox="0 0 256 256"><rect width="256" height="256" fill="#007ACC" rx="60"/><path fill="#fff" d="M56.6112 128.849L56.5299 139.333H73.1902H89.8505L89.8505 186.673V234.012H101.635H113.419V186.673L113.419 139.333H130.079H146.739V129.052C146.739 123.363 146.618 118.609 146.455 118.487C146.333 118.325 126.056 118.243 101.472 118.284L56.7331 118.406L56.6112 128.849Z"/><path fill="#fff" d="M206.567 118.108C213.068 119.734 218.026 122.619 222.577 127.332C224.934 129.852 228.428 134.444 228.713 135.541C228.794 135.866 217.66 143.343 210.915 147.528C210.671 147.691 209.695 146.634 208.598 145.009C205.307 140.214 201.853 138.141 196.57 137.776C188.809 137.247 183.811 141.311 183.852 148.097C183.852 150.088 184.136 151.266 184.949 152.892C186.655 156.427 189.825 158.54 199.781 162.847C218.107 170.731 225.949 175.932 230.826 183.327C236.271 191.576 237.49 204.742 233.792 214.535C229.729 225.181 219.651 232.414 205.469 234.812C201.081 235.584 190.678 235.462 185.965 234.609C175.684 232.78 165.932 227.701 159.918 221.037C157.561 218.436 152.969 211.65 153.254 211.162C153.375 211 154.432 210.35 155.61 209.659C156.748 209.009 161.056 206.53 165.119 204.173L172.474 199.906L174.018 202.182C176.172 205.473 180.885 209.984 183.73 211.487C191.897 215.795 203.113 215.185 208.639 210.228C210.996 208.074 211.971 205.839 211.971 202.548C211.971 199.581 211.605 198.281 210.061 196.046C208.07 193.202 204.007 190.804 192.466 185.806C179.26 180.117 173.571 176.582 168.37 170.974C165.363 167.724 162.518 162.522 161.34 158.174C160.365 154.558 160.121 145.496 160.893 141.839C163.615 129.08 173.246 120.181 187.143 117.539C191.654 116.686 202.137 117.011 206.567 118.108Z"/></svg>
        </g>
         
        <g transform="translate(1800, 0)">
          <svg width="256" height="256" viewBox="0 0 256 256" fill="none" xmlns="http://www.w3.org/2000/svg">
<rect width="256" height="256" rx="60" fill="#F0DB4F"/>
<path d="M67.3117 213.932L86.9027 202.076C90.6821 208.777 94.1202 214.447 102.367 214.447C110.272 214.447 115.256 211.355 115.256 199.327V117.529H139.314V199.667C139.314 224.584 124.708 235.926 103.398 235.926C84.1533 235.926 72.9819 225.959 67.3113 213.93" fill="#323330"/>
<path d="M152.381 211.354L171.969 200.013C177.126 208.434 183.828 214.62 195.684 214.62C205.653 214.62 212.009 209.636 212.009 202.762C212.009 194.514 205.479 191.592 194.481 186.782L188.468 184.203C171.111 176.815 159.597 167.535 159.597 147.945C159.597 129.901 173.345 116.153 194.826 116.153C210.12 116.153 221.118 121.481 229.022 135.4L210.291 147.429C206.166 140.04 201.7 137.119 194.826 137.119C187.78 137.119 183.312 141.587 183.312 147.429C183.312 154.646 187.78 157.568 198.09 162.037L204.104 164.614C224.553 173.379 236.067 182.313 236.067 202.418C236.067 224.072 219.055 235.928 196.2 235.928C173.861 235.928 159.426 225.274 152.381 211.354" fill="#323330"/>
</svg>

        </g>
         
        <g transform="translate(2100, 0)">
          <svg width="256" height="256" viewBox="0 0 256 256" fill="none" xmlns="http://www.w3.org/2000/svg">
<rect width="256" height="256" rx="60" fill="#0277BD"/>
<path d="M53.7527 102.651L56.6155 134.593H128.096V102.651H53.7527Z" fill="#EBEBEB"/>
<path d="M128.095 38H127.985H48L50.9036 69.9423H128.095V38Z" fill="#EBEBEB"/>
<path d="M128.095 218.841V185.608L127.955 185.645L92.3813 176.04L90.1072 150.564H72.821H58.0425L62.5175 200.718L127.948 218.882L128.095 218.841Z" fill="#EBEBEB"/>
<path d="M167.318 134.593L163.61 176.019L127.985 185.635V218.866L193.468 200.718L193.948 195.321L201.454 111.229L202.233 102.651L208 38H127.985V69.9423H172.994L170.088 102.651H127.985V134.593H167.318Z" fill="white"/>
</svg>

        </g>
         
        <g transform="translate(2400, 0)">
          <svg xmlns="http://www.w3.org/2000/svg" width="256" height="256" fill="none" viewBox="0 0 256 256"><rect width="256" height="256" fill="#E14E1D" rx="60"/><path fill="#fff" d="M48 38L56.6098 134.593H167.32L163.605 176.023L127.959 185.661L92.38 176.037L90.0012 149.435H57.9389L62.5236 200.716L127.951 218.888L193.461 200.716L202.244 102.655H85.8241L82.901 69.9448H205.041H205.139L208 38H48Z"/><path fill="#EBEBEB" d="M128 38H48L56.6098 134.593H128V102.655H85.8241L82.901 69.9448H128V38Z"/><path fill="#EBEBEB" d="M128 185.647L127.959 185.661L92.38 176.037L90.0012 149.435H57.9388L62.5236 200.716L127.951 218.888L128 218.874V185.647Z"/></svg>
        </g>
         
        <g transform="translate(2700, 0)">
          <svg xmlns="http://www.w3.org/2000/svg" width="256" height="256" fill="none" viewBox="0 0 256 256"><rect width="256" height="256" fill="#F4F2ED" rx="60"/><g clip-path="url(#clip0_7_155)"><path fill="#000" d="M171.474 169.034C172.62 159.493 172.276 158.101 179.377 159.641L181.184 159.802C186.648 160.048 193.791 158.923 198.059 156.976C207.095 152.785 212.452 145.782 203.544 147.624C183.223 151.815 181.747 144.931 181.747 144.931C203.213 113.08 212.192 72.65 204.437 62.757C183.315 35.757 146.745 48.5258 146.134 48.8633L145.937 48.8984C141.929 48.0547 137.499 47.5625 132.366 47.4922C123.17 47.3516 116.195 49.9039 110.893 53.9188C110.893 53.9188 45.6641 27.0453 48.6945 87.718C49.3414 100.627 67.1867 185.452 88.4914 159.788C96.2891 150.409 103.813 142.484 103.813 142.484C107.539 144.966 112.018 146.232 116.708 145.775L117.073 145.466C116.965 146.681 117.015 147.905 117.221 149.108C111.737 155.239 113.354 156.315 102.385 158.572C91.2899 160.857 97.8149 164.928 102.062 165.997C107.223 167.291 119.162 169.119 127.234 157.827L126.91 159.113C129.062 160.836 128.914 171.488 129.23 179.096C129.547 186.704 130.046 193.813 131.6 197.996C133.154 202.18 134.975 212.973 149.389 209.949C161.434 207.369 170.645 203.649 171.488 169.098"/><path stroke="#000" stroke-width="15.11" d="M171.474 169.034C172.62 159.493 172.276 158.101 179.377 159.641L181.184 159.802C186.648 160.048 193.791 158.923 198.059 156.976C207.095 152.785 212.452 145.782 203.544 147.624C183.223 151.815 181.747 144.931 181.747 144.931C203.213 113.08 212.192 72.65 204.437 62.757C183.315 35.757 146.745 48.5258 146.134 48.8633L145.937 48.8984C141.929 48.0547 137.499 47.5625 132.366 47.4922C123.17 47.3516 116.195 49.9039 110.893 53.9188C110.893 53.9188 45.6641 27.0453 48.6945 87.718C49.3414 100.627 67.1867 185.452 88.4914 159.788C96.2891 150.409 103.813 142.484 103.813 142.484C107.539 144.966 112.018 146.232 116.708 145.775L117.073 145.466C116.965 146.681 117.015 147.905 117.221 149.108C111.737 155.239 113.354 156.315 102.385 158.572C91.2899 160.857 97.8149 164.928 102.062 165.997C107.223 167.291 119.162 169.119 127.234 157.827L126.91 159.113C129.062 160.836 128.914 171.488 129.23 179.096C129.547 186.704 130.046 193.813 131.6 197.996C133.154 202.18 134.975 212.973 149.389 209.949C161.434 207.369 170.645 203.649 171.488 169.098"/><path fill="#336791" d="M203.48 147.688C183.16 151.878 181.684 144.995 181.684 144.995C203.15 113.143 212.129 72.7134 204.38 62.8204C183.259 35.8204 146.689 48.5962 146.077 48.9266L145.88 48.9618C141.414 48.0656 136.873 47.5924 132.317 47.5485C123.12 47.4079 116.145 49.9602 110.844 53.9751C110.844 53.9751 45.6078 27.1016 48.6453 87.7743C49.2922 100.684 67.1375 185.509 88.4422 159.845C96.2891 150.409 103.813 142.484 103.813 142.484C107.539 144.966 112.018 146.232 116.708 145.775L117.073 145.466C116.966 146.681 117.016 147.905 117.221 149.108C111.737 155.239 113.354 156.315 102.385 158.572C91.2899 160.857 97.8149 164.928 102.062 165.997C107.223 167.291 119.162 169.119 127.234 157.827L126.91 159.113C129.062 160.836 130.566 170.314 130.313 178.906C130.06 187.499 129.891 193.391 131.579 198.003C133.266 202.616 134.954 212.98 149.368 209.956C161.413 207.376 167.649 200.675 168.528 189.524C169.147 181.592 170.539 182.759 170.638 175.672L171.763 172.311C173.049 161.553 171.973 158.087 179.391 159.704L181.198 159.866C186.662 160.112 193.813 158.987 198.003 157.039C207.038 152.849 212.396 145.845 203.488 147.688H203.48Z"/><path stroke="#fff" stroke-linecap="round" stroke-linejoin="round" stroke-width="5.034" d="M146.07 48.5961C143.82 49.2993 182.38 34.4985 204.303 62.504C212.038 72.3969 203.073 112.827 181.606 144.678M128.098 153.784C127.536 173.795 128.239 193.946 130.194 198.784C132.148 203.621 136.346 213.198 150.767 210.118C162.812 207.538 167.199 202.538 169.098 191.506L173.548 156.231L128.098 153.784ZM110.816 53.4688C110.816 53.4688 45.5375 26.7782 48.575 87.4508C49.2219 100.36 67.0672 185.185 88.3719 159.521C96.1484 150.148 103.18 142.815 103.18 142.815L110.816 53.4688Z"/><path stroke="#fff" stroke-linecap="round" stroke-linejoin="bevel" stroke-width="5.034" d="M181.613 144.664C181.613 144.664 183.02 151.555 203.41 147.35C212.319 145.508 206.954 152.511 197.926 156.702C190.515 160.147 173.893 161.026 173.619 156.28C172.916 144.01 182.366 147.737 181.684 144.664C181.065 141.894 176.832 139.18 174.048 132.402C171.608 126.495 140.579 81.1438 182.654 87.8727C184.201 87.5563 171.685 47.7946 132.31 47.2181C92.9352 46.6415 94.1797 95.6282 94.1797 95.6282"/><path stroke="#fff" stroke-linejoin="round" stroke-width="5.034" d="M117.08 148.869C111.596 155 113.213 156.076 102.245 158.333C91.1492 160.618 97.6742 164.689 101.921 165.758C107.082 167.052 119.021 168.88 127.093 157.58C129.554 154.135 127.079 148.651 123.704 147.259C122.073 146.584 119.893 145.74 117.095 148.876L117.08 148.869Z"/><path stroke="#fff" stroke-linecap="round" stroke-linejoin="round" stroke-width="5.034" d="M116.722 148.763C116.159 145.156 117.903 140.874 119.766 135.854C122.565 128.331 129.02 120.807 123.859 96.9219C120.012 79.1329 94.1867 93.2165 94.1867 95.6282C94.1867 98.0399 95.3539 107.863 93.7648 119.288C91.6766 134.209 103.257 146.823 116.588 145.536"/><path fill="#fff" stroke="#fff" stroke-width="1.68" d="M110.577 95.2695C110.457 96.0922 112.088 98.293 114.205 98.5883C116.321 98.8836 118.128 97.168 118.248 96.3383C118.367 95.5086 116.736 94.6086 114.62 94.3133C112.503 94.018 110.682 94.4539 110.577 95.2695V95.2695Z"/><path fill="#fff" stroke="#fff" stroke-width=".837" d="M175.011 93.5891C175.123 94.4118 173.499 96.6125 171.383 96.9079C169.266 97.2032 167.445 95.4875 167.34 94.6579C167.234 93.8282 168.852 92.9282 170.968 92.6329C173.084 92.3375 174.905 92.7735 175.011 93.5891Z"/><path stroke="#fff" stroke-linecap="round" stroke-linejoin="round" stroke-width="5.034" d="M182.577 87.8867C182.928 94.3555 181.184 98.75 180.959 105.634C180.636 115.632 185.727 127.079 178.055 138.54"/></g><defs><clipPath id="clip0_7_155"><rect width="180" height="180" fill="#fff" transform="translate(38 38)"/></clipPath></defs></svg>
        </g>
         
        <g transform="translate(3000, 0)">
          <svg xmlns="http://www.w3.org/2000/svg" width="256" height="256" fill="none" viewBox="0 0 256 256">
            <defs>
                <linearGradient id="gray_grad_dark" x1="16231.7" y1="32970.31" x2="17680.45"
                    y2="32114.27" gradientTransform="translate(-118.24 -147.26) scale(0.01)"
                    gradientUnits="userSpaceOnUse">
                    <stop offset="0" stop-color="#909ca9" />
                    <stop offset="1" stop-color="#ededee" />
                </linearGradient>
                <linearGradient id="gray_grad" x1="16248.02" y1="16919.91" x2="17422.66"
                    y2="16919.91" gradientTransform="translate(-118.24 -147.26) scale(0.01)"
                    gradientUnits="userSpaceOnUse">
                    <stop offset="0" stop-color="#939fab" />
                    <stop offset="1" stop-color="#dcdee1" />
                </linearGradient>
                <radialGradient id="red_grad" cx="-41007.61" cy="-19773.58" r="1546.48"
                    gradientTransform="matrix(-0.01, 0, 0, -0.02, -245.02, -386.59)"
                    gradientUnits="userSpaceOnUse">
                    <stop offset="0" stop-color="#ee352c" />
                    <stop offset="1" stop-color="#a91d22" />
                </radialGradient>
            </defs>
            <rect fill="#f4f2ed" width="256" height="256" rx="60" />
            <path fill="url(#gray_grad_dark)"
                d="M125.22,238.05c-1.22,0-2.64,0-3.78-.07-12-.47-33.91-3.58-45.07-6.42a153.14,153.14,0,0,1-21.18-7.09C44.63,219.83,35.59,213,31,206.29a18.83,18.83,0,0,1-2.65-16.86,39.69,39.69,0,0,1,6.52-11,66.82,66.82,0,0,1,8.77-8.71c2.21-1.75,5.22-4.27,8.94-7.48,2.93-2.53,5.84-5.17,8.64-7.84a.43.43,0,0,1,.22-.12l10.68-2.83,38.1-16.82,43.92-14.34a.45.45,0,0,1,.16,0,.51.51,0,0,1,.46.31l1.09,2.59a.49.49,0,0,1,0,.41.51.51,0,0,1-.31.26c-3.6,1-5.1,1.48-5.61,1.65,0,.21.05.54.12.93A121.9,121.9,0,0,1,151.71,142c.21,3.82.09,14.58-.13,17.71a194.92,194.92,0,0,1-4,28.6c-2.9,12.09-8.29,26.36-15.59,41.26-2.59,5.3-4.1,8.1-4.47,8.33C127.42,238,127.34,238.05,125.22,238.05Zm-36.68-8.72c4.89,1,16.75,3,24.14,4.17,4.89.72,11.9,1.7,12.95,1.81a7.26,7.26,0,0,0,.44-1c1.75-4.22,5.93-15.78,7-19-.29.12-.69.29-1.24.54a149.23,149.23,0,0,1-19.59,7.55c-5.25,1.61-10.33,2.9-20.93,5.28Zm-6.78-1.45a2.7,2.7,0,0,0,.55.09c1.65-.46,3.32-.93,5-1.42,14.1-4.05,31.53-9.19,37.31-11,2.37-.75,5.09-1.64,6.83-2.23a140.49,140.49,0,0,1-17.72-3.14,106.34,106.34,0,0,1-12.36-3.83c-1.67-.62-2.5-.92-2.88-1.05L96.64,208a197.23,197.23,0,0,1-13.5,18.15C82.55,226.89,82.06,227.49,81.76,227.88ZM53.68,216.25c1,.68,3,1.91,4.9,2.95a84.36,84.36,0,0,0,7.68,3.52c2.18.88,10.59,3.84,11.76,4.16l.12,0,.77-1.35.36-.61c.57-.94,1.33-2.2,1.87-3.06l1-1.66,3.36-5.31c3.17-5,5-7.89,5.82-9.26l-.64.19c-5.35,1.69-13.43,4-27.87,7.9ZM50.28,214c.16.11.31.22.43.29q4.73-1.6,9.43-3.28c8.75-3,25.16-8.85,29-10.27-.26-.17-.6-.37-1-.59A62.27,62.27,0,0,1,72.47,187.3l-.68-.76-5.5,6.62c-8.72,10.51-12.49,15.3-15.52,19.69l-.69,1ZM34.77,192.36a5.79,5.79,0,0,0,.25,1.92,26.6,26.6,0,0,0,5.44,10.51,54.3,54.3,0,0,0,6.1,6.23l1.06.9,1.09-1.68c1-1.5,2-3,3-4.46l1.2-1.69c1.13-1.61,2.72-3.84,4.14-5.84,4.78-6.69,8.07-11.41,9.38-13.34l-2.32.55q-5.94,1.42-11.88,2.79Q43.5,190.27,34.77,192.36Zm67.69,9.18c1.09.5,3.24,1.45,5,2.14a138.37,138.37,0,0,0,26.87,7.57h0c.23-.68.75-2.24,1.36-4.18,1.94-6.09,2.86-9.16,4-13.12,1.29-4.57,2.54-9.62,2.92-11.58l-.34.2c-5.39,3.23-20.95,10.68-36.19,17.35C104.42,200.63,103.19,201.19,102.46,201.54ZM76.88,182.37A67.08,67.08,0,0,0,94.1,197c.84.52,1.44.88,1.79,1.08.35-.59,1.08-1.85,2-3.52a208.68,208.68,0,0,0,11.48-23.13c.07-.17.14-.32.19-.47l-1.36.56A215.79,215.79,0,0,1,79,181.61l-2.27.63ZM116,169.07c-.07.22-.17.47-.28.74a163,163,0,0,1-10.47,23.83c-.31.58-.59,1.1-.8,1.52.84-.33,2.64-1,4.27-1.6,14.68-5.48,29.07-11.47,33.58-13.95a101.59,101.59,0,0,1-25-9.82Zm-52.52-9.13c-1.45.77-5.21,2.85-8.3,4.61a42.37,42.37,0,0,0-10.8,8.27c-5.07,5.26-8.7,11.45-9.5,16.19l3.5-1c6.83-1.87,25.42-7.32,28.56-8.34-.17-.37-.47-1-1-2-2.44-5-3.24-8.68-3-13.58.08-1.2.2-2.4.37-3.59Zm56.19,6.28c1.25.85,4.46,2.81,7.1,4.26A85.63,85.63,0,0,0,141.91,177l1.55.45c.09-.53.22-1.36.29-1.84a181,181,0,0,0,1.95-24.87v-.36c-1,.8-3.66,2.71-5.48,3.93A198.43,198.43,0,0,1,122,165ZM88.11,147.88c-3.25,1.42-13.37,6.18-17,8-.75.38-.75.38-1.09,2l0,.16a30.43,30.43,0,0,0-.16,9.69,29.84,29.84,0,0,0,2.5,7.56c.05.1.13.23.2.37.3-.47.8-1.26,1.36-2.16,4.56-7.26,8.08-13.4,11.42-19.9C86.48,151.33,87.55,149.11,88.11,147.88Zm7.11-3a.69.69,0,0,0-.41.53c-.1.35-.64,1.75-1.22,3.24a186.43,186.43,0,0,1-13.16,26.54l-.23.36,4.59-1.5c7.73-2.49,14.56-4.87,20.9-7.29l.5-.19c2.13-.8,3.43-1.3,4.07-1.57l-1.19-1a56.47,56.47,0,0,1-7.74-8.34,45.93,45.93,0,0,1-5.58-10,8.25,8.25,0,0,0-.32-.86Zm26.93-10.3c0,.45,0,1.38-.05,2.8a98.1,98.1,0,0,1-3.57,23.45c-.1.37-.17.66-.23.88.54-.23,1.31-.56,2.16-.94a143.22,143.22,0,0,0,22.71-12.19l.58-.4c.52-.35,1-.66,1.25-.87l-.29-.12A205.22,205.22,0,0,1,124.55,136C123.87,135.53,122.7,134.8,122.15,134.55ZM99.75,143c.28.79,1.12,2.81,1.73,4a44.73,44.73,0,0,0,6,8.78c1.25,1.44,4.37,4.52,5.56,5.55.11-.35.29-.9.52-1.68a84.68,84.68,0,0,0,3-14.34,87.06,87.06,0,0,0,.27-8.95C114.2,137.3,102,142,99.75,143Zm26.93-10.2c1.86,1.33,7.25,4.89,10.14,6.71,3.28,2.05,7.24,4.41,8.72,5.21,0-.35,0-.84,0-1.48A148.21,148.21,0,0,0,144,127.19c-2,.56-11.23,3.53-15.46,5C127.84,132.39,127.14,132.62,126.68,132.8Z" />
            <path fill="#000"
                d="M154.3,120.73h0l1.09,2.58a60.55,60.55,0,0,0-5.94,1.79,3.83,3.83,0,0,0,.1,1.36A123.88,123.88,0,0,1,151.21,142c.2,3.64.1,14.42-.13,17.64a196.13,196.13,0,0,1-4,28.52c-2.89,12-8.19,26.14-15.55,41.16a82.1,82.1,0,0,1-4.28,8.13,13.87,13.87,0,0,1-2,.07c-1.13,0-2.55,0-3.76-.07-12-.46-33.73-3.55-45-6.4A151.92,151.92,0,0,1,55.39,224c-10.48-4.61-19.46-11.37-24-18-3.52-5.2-4.42-10.84-2.59-16.41a39,39,0,0,1,6.43-10.88A68.18,68.18,0,0,1,44,170.08c2.43-1.92,5.57-4.57,9-7.49q4.43-3.83,8.65-7.86l10.69-2.82,38.17-16.85,43.88-14.33M146,145.48a8.86,8.86,0,0,0,0-2.26c-.27-6.44-1.33-16.62-1.73-16.62h0c-.36,0-11.31,3.52-15.92,5.08-2.72.93-2.75,1-2.42,1.19,1,.8,7.3,5,10.61,7.07,3.82,2.39,9.16,5.54,9.42,5.54m-24-11.55c-.3.1-.3.1-.33,3.42a98.11,98.11,0,0,1-3.55,23.32,8,8,0,0,0-.4,1.82s1.39-.56,3-1.29A144.44,144.44,0,0,0,143.45,149c2.82-1.93,2.69-1.73,1.46-2.26a204.09,204.09,0,0,1-20.1-11.18,11,11,0,0,0-2.88-1.55h0s-.07,0,0,0m-8.64,28.2h0a20.53,20.53,0,0,0,.77-2.32,85.63,85.63,0,0,0,3.05-14.42,72.32,72.32,0,0,0,.2-9.66h0c-.46,0-17.61,6.64-18.14,7a29.17,29.17,0,0,0,1.86,4.51,44.87,44.87,0,0,0,6.1,8.89,63.24,63.24,0,0,0,6.16,6M79.24,176.34l.1,0L85,174.5c7.82-2.52,14.66-4.91,20.92-7.3,5.41-2.06,5.34-2,5.15-2.22s-.83-.73-1.63-1.4a55.34,55.34,0,0,1-7.66-8.26,44.75,44.75,0,0,1-5.51-9.84,6.34,6.34,0,0,0-.49-1.2.14.14,0,0,0-.1,0,2.81,2.81,0,0,0-.57.13,1.22,1.22,0,0,0-.73.86c-.1.33-.66,1.79-1.23,3.25A183.94,183.94,0,0,1,80,174.89c-.73,1.16-.91,1.45-.76,1.45m-6.73.19s.08,0,.13-.11.86-1.33,1.66-2.62c4.71-7.5,8.22-13.67,11.44-19.94A71.86,71.86,0,0,0,89,147h0c-.41,0-13.9,6.32-18.11,8.46-1,.5-1,.46-1.39,2.52a31.29,31.29,0,0,0-.17,9.88,30.57,30.57,0,0,0,2.56,7.7c.37.72.52,1,.63,1m71.34,1.52s.2-1.1.4-2.39a180.71,180.71,0,0,0,1.95-24.94v-1.4l-.53.4c-.66.6-3.71,2.79-5.73,4.14a193.27,193.27,0,0,1-18.15,10.65c-1.62.86-3,1.59-3.05,1.63s4.55,3,7.76,4.77a86,86,0,0,0,15.26,6.54l2.09.6M34.37,189.64l.13,0,4-1.1c6.9-1.88,28.86-8.32,29.09-8.52,0,0-.5-1.16-1.16-2.52-2.39-4.91-3.19-8.49-2.92-13.33.07-1.19.2-2.37.36-3.55s.24-1.46.1-1.46-.07,0-.07,0c-.39.13-5.6,3-9,4.94A42.83,42.83,0,0,0,44,172.47c-5.18,5.38-8.89,11.74-9.66,16.62-.07.43-.07.55,0,.55M103.44,196a3.52,3.52,0,0,0,.74-.24c.4-.17,2.52-1,4.68-1.76,14.82-5.54,29.32-11.57,33.73-14l1.06-.6-.76-.16a99.77,99.77,0,0,1-25.41-9.89,14.54,14.54,0,0,0-1.78-1h0s-.2.6-.46,1.23a163.85,163.85,0,0,1-10.45,23.78c-.76,1.43-1.36,2.58-1.36,2.62h0m-7.38,2.74s1.06-1.75,2.28-3.94a207.9,207.9,0,0,0,11.51-23.19,9.39,9.39,0,0,0,.57-1.52h0s-1.1.43-2.39,1a216.9,216.9,0,0,1-29.12,10l-3,.83.6.73a68.4,68.4,0,0,0,17.34,14.76c1.2.73,2.19,1.32,2.23,1.32m47.13-17.21h0a4.31,4.31,0,0,0-1.23.6c-5.37,3.21-21,10.71-36.12,17.31a36.57,36.57,0,0,0-4.44,2.09c.2.16,3.51,1.66,5.83,2.59a139.19,139.19,0,0,0,27,7.59,2,2,0,0,0,.43.1s.73-2.09,1.52-4.61c1.83-5.74,2.82-9,4-13.13,1.4-4.95,3.09-11.78,3.06-12.54h0M47.73,212.67l1.4-2.16q1.45-2.25,3-4.44c.89-1.26,3.28-4.64,5.34-7.53,5.9-8.26,10.11-14.33,10-14.39s-1.59.36-3.51.83q-5.94,1.41-11.87,2.78-8.84,2-17.65,4.15c-.33.1-.33.89,0,2.49a27.39,27.39,0,0,0,5.54,10.71,55.5,55.5,0,0,0,6.17,6.3l1.49,1.26m2.92,2.16q4.85-1.65,9.65-3.35C69.69,208.23,90,201,90.19,200.87a8.61,8.61,0,0,0-1.79-1.17A62.25,62.25,0,0,1,72.84,187l-1.06-1.2-5.87,7.07c-8.52,10.28-12.44,15.22-15.56,19.73l-1,1.39.6.43a5.48,5.48,0,0,0,.66.44m31.66,13.64h.12c1.67-.47,3.34-.94,5-1.43,14.2-4.08,31.61-9.22,37.32-11,3.58-1.13,8.45-2.75,8.69-2.88s-.27-.17-1-.24a136,136,0,0,1-18.61-3.21,105.22,105.22,0,0,1-12.3-3.82c-1.74-.64-3.16-1.16-3.28-1.16h0s-.93,1.39-2,3a195.46,195.46,0,0,1-13.46,18.11A26.17,26.17,0,0,0,81,228.09c0,.12.89.38,1.31.38m-3.93-1,1-1.7c.56-.92,1.56-2.58,2.22-3.64s2.66-4.22,4.41-7c4.12-6.5,6.47-10.28,6.44-10.31h0a16.31,16.31,0,0,0-1.8.5c-5.28,1.66-13.34,3.95-27.86,7.9-5.48,1.49-10,2.72-10.09,2.75-.26.07,3,2.19,5.71,3.62a84,84,0,0,0,7.72,3.54c2.23.9,10.62,3.85,11.81,4.18l.5.14m47.36,8.32c.22,0,.39-.29.8-1.29,2-4.71,7.33-19.64,7.2-20h0a16.31,16.31,0,0,0-2.12.86A146.76,146.76,0,0,1,112,223c-5.17,1.59-10.28,2.89-20.89,5.27l-4.94,1.13.79.17c3.48.79,17.35,3.22,25.61,4.48,4.74.69,12.53,1.79,13.1,1.82h0m17.45-54.26h0m0,0h0m11.11-61.83a1.06,1.06,0,0,0-.31,0l-43.88,14.33-.1,0L71.91,151l-10.6,2.8a1.07,1.07,0,0,0-.44.25c-2.79,2.66-5.69,5.3-8.62,7.82-3.72,3.22-6.73,5.73-8.92,7.47a68.61,68.61,0,0,0-8.85,8.78,39.87,39.87,0,0,0-6.6,11.19c-1.92,5.85-1,11.83,2.71,17.29,4.64,6.82,13.76,13.69,24.4,18.37a153.84,153.84,0,0,0,21.26,7.12c11.19,2.84,33.15,6,45.17,6.43,1.15.05,2.57.07,3.8.07,2.2,0,2.37-.06,2.62-.25s.88-.89,4.6-8.51c7.32-14.93,12.72-29.24,15.63-41.36a194.71,194.71,0,0,0,4-28.68c.22-3.15.34-13.95.13-17.78a124.56,124.56,0,0,0-1.67-15.67c0-.19-.06-.35-.08-.5.81-.25,2.53-.75,5.21-1.52a1,1,0,0,0,.62-.53,1,1,0,0,0,0-.82l-1.09-2.57a1,1,0,0,0-.34-.44,1,1,0,0,0-.58-.19Zm-26.55,13.21.93-.32c4.28-1.44,12.27-4,14.92-4.8.42,2.46,1.18,9.92,1.41,15.44,0,.22,0,.42,0,.6-1.81-1-5.18-3-7.94-4.77s-7.17-4.65-9.34-6.15ZM119,160.82a98.06,98.06,0,0,0,3.56-23.46c0-.83,0-1.5,0-2,.56.32,1.25.75,1.67,1a216.8,216.8,0,0,0,19.7,11l-.52.35-.58.39a142.64,142.64,0,0,1-22.63,12.15l-1.22.54Zm-18.65-17.55c2.8-1.17,12.65-5,16-6.2,0,2.14-.08,6.64-.28,8.18a83.55,83.55,0,0,1-3,14.26l-.28.94c-1.37-1.27-3.83-3.7-4.94-5a44.12,44.12,0,0,1-6-8.69c-.53-1.05-1.19-2.6-1.53-3.51Zm-19,31.33A192.28,192.28,0,0,0,94,148.86l0-.1c.61-1.56,1-2.61,1.17-3.07a.42.42,0,0,0,0,.1,45.34,45.34,0,0,0,5.65,10.14,57.54,57.54,0,0,0,7.81,8.42l.56.47L106,166.08l-.49.18c-6.34,2.42-13.17,4.8-20.88,7.28l-3.27,1.06Zm-8.8.09a25.78,25.78,0,0,1-2.1-16.51l0-.16a7.81,7.81,0,0,1,.36-1.41,2.84,2.84,0,0,1,.44-.24c3.42-1.74,11.79-5.68,15.79-7.48-.59,1.24-1.39,2.87-2.24,4.52C81.53,159.89,78,166,73.45,173.27l-.88,1.42Zm48.05-8.42.22-.12,1.42-.75a198.9,198.9,0,0,0,18.23-10.7c1.45-1,3.43-2.38,4.71-3.34a181.19,181.19,0,0,1-1.94,24.14c0,.31-.13.82-.2,1.28l-1-.29A85.05,85.05,0,0,1,127,170c-2.17-1.19-4.85-2.8-6.36-3.77Zm-55.74-7.09ZM35.5,188.31c1-4.55,4.49-10.24,9.21-15.14A42,42,0,0,1,55.39,165c2.61-1.48,5.65-3.17,7.42-4.13-.15,1.09-.25,2.16-.32,3.23-.27,5,.54,8.75,3,13.84l.71,1.48c-4.29,1.33-21.66,6.42-28,8.16l-2.24.62-.48.13ZM116.17,170l.07-.18.74.43a100.65,100.65,0,0,0,23.89,9.56c-5.46,2.75-18.78,8.24-32.36,13.31l-3,1.13.19-.35A165,165,0,0,0,116.17,170ZM77.64,182.52l1.54-.43A217.64,217.64,0,0,0,108.42,172l.25-.1a212.09,212.09,0,0,1-11.2,22.43c-.74,1.33-1.36,2.41-1.76,3.09l-1.35-.83a68.41,68.41,0,0,1-16.72-14.07Zm26,19c.67-.3,1.53-.69,2.58-1.14,14.71-6.44,29.71-13.61,35.61-17-.53,2.37-1.6,6.64-2.68,10.45s-2,7-4,13.1c-.51,1.62-.95,3-1.22,3.76a137.78,137.78,0,0,1-26.37-7.47c-1.27-.51-2.8-1.17-4-1.69Zm-68.4-8.77c5.67-1.36,11.42-2.71,17.11-4,4-.91,7.94-1.85,11.88-2.79l1.07-.26c-1.61,2.34-4.61,6.62-8.65,12.27l-4.11,5.8-1.23,1.73c-1,1.47-2.06,3-3,4.48l-.78,1.2-.62-.52a54.69,54.69,0,0,1-6-6.16,26.56,26.56,0,0,1-5.35-10.31,10,10,0,0,1-.25-1.42Zm15.51,21,.41-.58c3-4.39,6.79-9.16,15.5-19.67l5.13-6.16.28.32a62.93,62.93,0,0,0,15.8,12.93l.1.06c-5.12,1.86-20,7.13-28,9.91-3,1.08-6.14,2.15-9.2,3.2ZM35.26,192.43h0ZM82.87,227.3c.19-.24.41-.5.65-.78a200.33,200.33,0,0,0,13.54-18.21l1.29-1.94.32-.48,2.51.92a107.91,107.91,0,0,0,12.41,3.85,144.87,144.87,0,0,0,15.54,2.89c-1.47.49-3.17,1-4.68,1.52-5.76,1.8-23.19,7-37.29,11-1.43.42-2.87.83-4.29,1.23Zm-28-10.86,2.67-.73L63,214.23c13.89-3.77,21.89-6,27.25-7.7-1,1.61-2.64,4.22-5.11,8.13L81.77,220l-1,1.66c-.55.87-1.31,2.14-1.88,3.08l-.35.59-.59,1c-1.78-.55-9.4-3.24-11.45-4.06a83.78,83.78,0,0,1-7.64-3.51c-1.43-.77-2.88-1.64-3.93-2.31ZM91,229.29l.41-.09c10.62-2.39,15.71-3.68,21-5.29A148.59,148.59,0,0,0,132,216.33l.2-.09c-1.39,4.15-5,14.12-6.59,17.9a6.82,6.82,0,0,1-.27.63c-1.73-.21-8.09-1.1-12.59-1.76-6.39-1-16.13-2.65-21.79-3.72Z" />
            <path fill="url(#gray_grad)"
                d="M130.07,60.43l-28.79-4.94L76.1,51l-10.64-3.4a.45.45,0,0,1-.19-.11l-4.45-4.22a.47.47,0,0,1-.15-.35,3.45,3.45,0,0,1,.23-1.31c.45-1.1,2.91-3.47,4.65-4.71,4.88-3.43,12.91-7.46,23.22-11.66C95.34,22.55,107.83,18,109,18c.83.07.93.48,1.51,2.8A111.15,111.15,0,0,0,115.35,34c2.6,5.93,6.91,14.45,10.73,21.17l.64,1.16,3.56.55.14,0a.54.54,0,0,1,.39.17.55.55,0,0,1,.14.39l-.3,2.49a.5.5,0,0,1-.2.34.47.47,0,0,1-.3.1Zm-26.38-7.8c2.08.37,6.85,1.14,13.61,2.24l1.23.2,1.87.3c-1.21-2-4.16-7.69-5.2-10-.06-.15-.21-.48-.33-.72l-1.31,1.1A65.08,65.08,0,0,1,103.69,52.63Zm-8.52-1.41,1,.15.46.07a18.67,18.67,0,0,0,2-1.11c3.75-2.33,8.92-5.2,13.5-7.49l.64-.3-.43,0c-9.28-.76-26-3.9-33.61-6.29,4,3.85,8.13,7.78,12.15,11.7L94,51Zm-26-5.39c2.28.72,3.77,1.11,7.29,1.92,2.77.62,7,1.47,9,1.82l-.86-1.06c-1-1.28-3.09-3.78-5.12-6.33L75.13,36.7l0,0c-4.54,3.21-7.38,6.48-7.41,8.52v.09ZM80.49,33.34l1.94.27c10.87,1.51,26.08,4.12,29.58,5.08l.4.13c-.1-.42-.35-1.14-.63-2l-.18-.51a70.45,70.45,0,0,1-3.24-14.06c-.08-.66-.14-1.15-.19-1.49-2.43.86-13.13,5.34-17.38,7.29C88,29.37,82.73,32.09,80.49,33.34Z" />
            <path fill="#000"
                d="M109.06,18.45c.36,0,.43.16,1,2.42a110,110,0,0,0,4.85,13.37c2.52,5.77,6.83,14.32,10.74,21.22l.76,1.36,3.79.6c.09,0,.16,0,.26,0l-.3,2.49L101.36,55,76.19,50.49,65.61,47.1l-4.44-4.21a2.93,2.93,0,0,1,.2-1.13c.36-.89,2.65-3.18,4.47-4.47C70.75,33.84,78.71,29.86,89,25.68c7.51-3.05,19.1-7.23,20.07-7.23h0m3.7,21c.44,0,.19-.65-.68-3.25a68.73,68.73,0,0,1-3.22-14c-.13-1.1-.27-2-.3-2.06h0c-.93.16-13.4,5.37-17.94,7.46C87,29.26,79,33.47,79.11,33.61s1.49.26,3.25.49c11,1.53,26.14,4.15,29.52,5.08a4.56,4.56,0,0,0,.88.23M96.65,52a13,13,0,0,0,2.16-1.2c3.58-2.22,8.76-5.1,13.47-7.46a14.85,14.85,0,0,0,2.08-1.09l-2-.2c-9.75-.8-27.43-4.18-34.46-6.57L76.56,35l1.72,1.56q6.12,5.8,12.17,11.71l3.32,3.25,1.33.19c.72.11,1.42.24,1.55.24M86.56,50.23h0a9.61,9.61,0,0,0-1-1.29c-.56-.7-3.15-3.85-5.7-7.07L75.23,36l-.43.3C70,39.71,67.2,43,67.17,45.25v.46l1.82.6c2.23.7,3.72,1.09,7.33,1.92,3.39.77,9.67,2,10.24,2M121.17,56c.27,0,.11-.12,0-.31-.86-1.29-4.37-8-5.5-10.48-.4-.89-.57-1.19-.7-1.19l0,0a.15.15,0,0,0-.1.08l-1.59,1.33a65,65,0,0,1-10.12,7,3.05,3.05,0,0,0-.76.5c0,.06,3.61.66,14.86,2.48,2.6.43,3.61.61,4,.61M109.06,17.45h0c-1.4,0-14.45,4.86-20.45,7.3C78.23,29,70.17,33,65.27,36.47c-1.84,1.3-4.35,3.73-4.83,4.92a4,4,0,0,0-.27,1.51,1,1,0,0,0,.31.72l4.44,4.21a1.09,1.09,0,0,0,.39.23l10.58,3.38.12,0L101.19,56l28.79,5h.17a1,1,0,0,0,.6-.2,1,1,0,0,0,.39-.68l.3-2.49a1,1,0,0,0-.24-.78,1,1,0,0,0-.69-.34l-.22,0L127,55.91l-.53-.94c-3.81-6.72-8.11-15.21-10.7-21.13A109.67,109.67,0,0,1,111,20.6c-.6-2.4-.76-3.05-1.87-3.15Zm-27,15.6c2.54-1.36,6.56-3.43,9-4.54,4.26-2,13.63-5.87,16.75-7,0,.24.07.53.11.86a70.06,70.06,0,0,0,3.26,14.16l.17.51c.14.4.26.77.37,1.1-4.3-1.06-18.73-3.53-29.17-5l-.44-.06ZM94.24,50.57l-3.09-3c-3.52-3.43-7.1-6.88-10.66-10.28a217.67,217.67,0,0,0,30.39,5.6c-4.36,2.22-9.1,4.86-12.6,7-.85.54-1.47.88-1.76,1l-.3,0-1-.16-1-.15ZM68.19,45c.23-1.44,2.11-4.19,6.85-7.6l4.08,5.1c2,2.54,4,5,5.11,6.32v0c-2.19-.42-5.44-1.07-7.7-1.58-3.49-.8-5-1.2-7.25-1.91L68.19,45Zm37,7.38a65.54,65.54,0,0,0,8.74-6.22l.81-.68,0,.12c.86,1.87,3.27,6.56,4.71,9.13l-.84-.14-1.23-.2c-5.46-.89-9.73-1.58-12.24-2Z" />
            <path fill="url(#red_grad)"
                d="M44.12,170.29a.5.5,0,0,1-.32-.89c22.54-18.51,36.86-34.85,43.78-49.94,3.84-8.3,5.39-15.37,5.19-23.62C92.44,83.07,89,74,80.85,64.64c-1.75-2-16.37-16.27-16.52-16.42a13.49,13.49,0,0,1-3.23-3.85A3.8,3.8,0,0,1,61.17,41h0a.51.51,0,0,1,.43-.24h.07a.48.48,0,0,1,.41.36c.58,2.23,3.12,3.17,5.36,4l.91.34a86,86,0,0,0,8.71,2.33c3.83.83,9.66,1.83,13.51,2.49,11.87,2,23.92,4,35.81,5.83,7.49,1.15,16.22,2.67,20,3.42,21.32,4.22,38.09,9.85,51.26,17.2a80.08,80.08,0,0,1,23.69,19.73,102.74,102.74,0,0,1,6.7,9.42l.46.74a.49.49,0,0,1-.34.76l-3,.46c-29.16,4.47-80,18.09-111,29.76C92.41,145.8,75,153.58,59.42,162.13c-7.06,3.88-9.69,5.44-11.72,7l-.14.08-3.28,1.09A.45.45,0,0,1,44.12,170.29ZM97.74,125c-3.53,2.33-10.08,6.81-13.73,9.44a10.79,10.79,0,0,0-3.21,3.05c-1.8,2.36-3.74,4.66-5.77,6.84l-1.21,1.32a110.17,110.17,0,0,0,19.56-15.94C94.82,128.28,96.5,126.44,97.74,125Zm6.3-1.29a132.3,132.3,0,0,1-23.12,21.65l3.78-1.79c5.16-2.36,12.71-5.5,20.73-8.61l4.19-1.62,0-.28a23.49,23.49,0,0,0-3.63-9.42c-.38-.56-.66-1-.84-1.22Zm5.25-6a16.79,16.79,0,0,0,.71,1.55,28.12,28.12,0,0,1,2.87,12.17v.08c.57-.64,1.43-1.64,2.41-2.79,3.81-4.52,9.64-11.8,13-16.23,2-2.6,4.77-6.52,6.21-8.6-2.13,1-6.07,3.06-9,4.63C119.35,111.85,110.55,116.89,109.29,117.76Zm32.76-14.67a145.54,145.54,0,0,1-22.37,25.7l-1.59,1.47.94-.34c13.61-5,25.4-8.78,40.67-13l1.9-.54c-1-1-4.22-3.91-6.06-5.42a125.56,125.56,0,0,0-11.4-8.43l-1.2-.78ZM94.16,113.68a8.53,8.53,0,0,0-.41,1.18,63.8,63.8,0,0,1-2.81,7,54,54,0,0,1-3.17,5.67l.65-.51c2.88-2.3,7.7-5.94,10.73-8.11.71-.52,1.19-.9,1.48-1.14a36.18,36.18,0,0,0-5.21-3.45C94.78,114,94.39,113.79,94.16,113.68ZM149.35,97c.85.67,1.67,1.33,2.48,2A68.63,68.63,0,0,1,165.36,114c.2.31.38.59.53.8l2.05-2.56q4.32-5.51,8.69-11c6.63-8.34,9.53-12.1,11.48-14.9,1-1.37,2.23-3.3,2.93-4.43-1.47.4-4.29,1.23-7.21,2.14-7.62,2.35-17.8,6-25.33,9-3.59,1.45-7.68,3.2-9.21,3.9Zm45.5-14.6c-.19.38-.56,1.15-1.3,2.72-5.43,10.94-10.16,17.24-20.23,26.94-.68.65-1.26,1.21-1.7,1.66l.64-.15a327.5,327.5,0,0,1,49.09-8.17l2.32-.18c-1.24-1.32-4-4.15-5.35-5.5a112,112,0,0,0-22.08-16.57C195.59,82.81,195.13,82.57,194.85,82.44ZM97.36,107.07l1.08.58a25.08,25.08,0,0,1,6.29,4.63l1.41,1.36.5-.8c.23-.41.58-1,.94-1.63l.81-1.4a81.53,81.53,0,0,0,5.83-13.37c.48-1.54,1.11-3.77,1.46-5.11-1.9,1.46-6.14,4.87-8.72,7.1C103,101.83,98.56,105.84,97.36,107.07ZM121,90c0,.09-.06.2-.1.35a69.58,69.58,0,0,1-6.78,18.38,3.5,3.5,0,0,1-.17.32l1.63-1c5.57-3.39,11.35-6.57,17.18-9.47,1.21-.6,2.16-1.08,2.75-1.39-1.39-.76-4.57-2.45-6.92-3.62C125.49,92.06,122.06,90.46,121,90ZM95.83,82.77a76.81,76.81,0,0,1,.55,19.41l2-1.84c5.2-5,9.38-8.82,13.56-12.3l1.38-1.2c-1.9-.73-7.7-2.66-11-3.6-2-.57-5.25-1.34-6.52-1.6Zm31.63,2a109.17,109.17,0,0,1,13.06,6.4c.85.5,1.31.75,1.56.88.24-.36.65-1,1.14-1.89,3.95-6.92,7.14-14.21,8.3-19,.28-1.1.54-2.6.66-3.48-1.89,1-7.29,4-11.09,6.28-5,3-13.31,8.48-15.45,10.09Zm28.12-16.93c0,.14,0,.33-.05.57a67.75,67.75,0,0,1-6.45,22.28c-.12.24-.21.45-.29.62.25-.09.53-.21.84-.34A247.63,247.63,0,0,1,188,79.12l.26-.06-1.08-.49a196.93,196.93,0,0,0-22.53-8.24C161.76,69.5,157,68.18,155.58,67.85ZM97.42,75.1c.83.27,2.43.74,4.41,1.27,5.42,1.53,11,3.19,14.28,4.22l1.22.4c0-.51.12-1.87.15-2.57a53.33,53.33,0,0,0-1.58-15c-.24-.91-.65-2.45-.9-3.14-1.74,1.16-9,6.79-12.21,9.59C101.37,71.09,98.49,74,97.42,75.1Zm20.92-14.33A46.89,46.89,0,0,1,122,79c0,.49,0,.91,0,1.25.56-.36,1.42-.93,2.42-1.6a144.69,144.69,0,0,1,21.8-11.85c.77-.35,1.32-.6,1.7-.79-2.11-.47-6.86-1.45-10.58-2.17-5.46-1.06-16.17-2.92-19.1-3.35Q118.28,60.62,118.34,60.77ZM87.55,55.38a108.34,108.34,0,0,1,6,16.34c0,.16.08.32.12.46L94.84,71a64.6,64.6,0,0,1,9.46-7.56c1.37-.93,5.55-3.43,6.88-4.14l-.77-.13c-6.13-1-16.37-3-22.25-4.28-.35-.08-.66-.14-.92-.18C87.33,54.9,87.44,55.13,87.55,55.38ZM72.61,50.9A70.44,70.44,0,0,1,88.42,68.44c-1.16-4.17-3.94-13-4.49-14.44l-.27-.08c-.64-.17-1.83-.49-3.18-.82s-2.93-.77-4.39-1.17C74.93,51.61,73.76,51.27,72.61,50.9Z" />
            <path fill="#000"
                d="M61.6,41.3h0m0,0c.73,2.82,4.18,3.75,6.56,4.68A87.84,87.84,0,0,0,77,48.33c3.85.83,9.65,1.82,13.53,2.49q17.89,3.07,35.82,5.84c7.17,1.09,16,2.62,20,3.41,21.3,4.21,38.11,9.89,51.11,17.15A79.74,79.74,0,0,1,221,96.82a102.63,102.63,0,0,1,6.67,9.39l.46.73-3,.46c-29,4.44-80.09,18.11-111.14,29.78-21.55,8.1-39.13,16-54.75,24.51-6.77,3.72-9.66,5.41-11.78,7l-3.28,1.1c22.45-18.44,37-35.06,43.91-50.12,3.88-8.39,5.44-15.62,5.24-23.84-.33-12.81-3.88-22.09-12-31.51-1.79-2.06-16.55-16.45-16.55-16.45a13.07,13.07,0,0,1-3.12-3.68,3.33,3.33,0,0,1,0-2.89M89.72,71.51h0s-.3-1.32-.73-2.88c-1.12-4.11-4.47-14.83-4.71-15.06,0,0-1.69-.46-3.68-1-1.46-.37-2.92-.76-4.37-1.16Q73.8,50.79,71.41,50a12.36,12.36,0,0,0-1.24-.4h0a14.52,14.52,0,0,0,1.63,1.29A69.13,69.13,0,0,1,88.89,70.22a7.39,7.39,0,0,0,.83,1.29m-3.28-17.4h0a15.77,15.77,0,0,0,.65,1.48A107.87,107.87,0,0,1,93,71.85c.17.69.36,1.26.36,1.26s.83-.8,1.79-1.76a64,64,0,0,1,9.39-7.5c1.46-1,5.87-3.61,7-4.18a3.21,3.21,0,0,0,.89-.56,8.13,8.13,0,0,0-2-.43c-6.46-1.1-16.58-3-22.22-4.28a12.73,12.73,0,0,0-1.79-.3h0a.08.08,0,0,1,0,0v0m31.24,27.52.1-.33c.07-.17.13-1.46.2-2.85a54.31,54.31,0,0,0-1.59-15.19c-.66-2.49-1-3.62-1.19-3.69h0c-.42,0-9.41,7-12.73,9.89a78,78,0,0,0-5.87,5.87c0,.07,2.29.76,5.11,1.52,4.94,1.4,10.71,3.09,14.26,4.21l1.72.57m3.85-.5s1.46-.93,3.15-2A143,143,0,0,1,146.4,67.27c2.23-1,2.92-1.39,2.72-1.46-.39-.17-7.09-1.56-11.7-2.46-6.08-1.17-19.28-3.45-19.91-3.45h0a5.55,5.55,0,0,0,.4,1.06,46.34,46.34,0,0,1,3.58,18,18.3,18.3,0,0,0,.07,2.12m20.72,11.55h0a23.06,23.06,0,0,0,1.39-2.25c3.95-6.9,7.16-14.23,8.36-19.17a24.71,24.71,0,0,0,.73-4.38h0c-.35,0-7.49,4-11.9,6.63-5.64,3.39-16.32,10.45-16.08,10.65,0,.07,1.19.53,2.52,1.09a111,111,0,0,1,13,6.37,15.39,15.39,0,0,0,2,1.07m5.68-.5c.06,0,.93-.33,1.89-.73a246.31,246.31,0,0,1,38.24-11.84l1.69-.4-2.42-1.1a195.87,195.87,0,0,0-22.59-8.25c-3.15-.93-9.18-2.59-9.48-2.59-.1,0-.2.5-.23,1.13a67.56,67.56,0,0,1-6.4,22.09,7.68,7.68,0,0,0-.7,1.69M95.86,103.29c.07,0,1.33-1.16,2.82-2.59,5-4.84,9.19-8.66,13.53-12.27,1.06-.93,2-1.69,2-1.73,0-.19-8-2.88-11.81-3.94-2.38-.67-6.71-1.7-7.16-1.7h0s.07.82.17,1.75a75,75,0,0,1,.46,20c0,.27,0,.47.07.47m70,12.3s1.13-1.39,2.46-3q4.32-5.51,8.69-11c6.6-8.29,9.52-12.07,11.5-14.92A62.69,62.69,0,0,0,192,81.17h0c-.28,0-4.44,1.2-8.35,2.43-7.66,2.35-17.87,6-25.37,9-4.28,1.73-9.92,4.15-9.92,4.24a3.47,3.47,0,0,0,.67.57c.83.65,1.65,1.31,2.45,2a68.38,68.38,0,0,1,13.43,14.83,12.09,12.09,0,0,0,.93,1.32m28.7-33.76h0c-.06.1-.72,1.49-1.49,3.12-5.44,10.94-10,17.08-20.13,26.79-1.62,1.56-2.92,2.85-2.85,2.85s1.09-.23,2.25-.49a326.21,326.21,0,0,1,49-8.16c1.79-.13,3.32-.27,3.32-.27s-4.28-4.54-6-6.26a112.42,112.42,0,0,0-22.19-16.65,8.48,8.48,0,0,0-1.87-.93h0m-81.73,28.42s1.36-.79,3-1.76q8.37-5.08,17.15-9.45c2-1,3.55-1.79,3.51-1.82-.23-.2-4.71-2.59-7.69-4.08-3.25-1.63-7.56-3.65-8-3.75-.1,0-.23.33-.36.83a69.34,69.34,0,0,1-6.73,18.27c-.9,1.63-.93,1.76-.8,1.76m-6.6,4.18.83-1.33c.43-.76,1.23-2.12,1.76-3a81.82,81.82,0,0,0,5.87-13.46,64.4,64.4,0,0,0,1.72-6.4h0c-.22,0-6.7,5.19-9.78,7.86-4.35,3.71-10,8.85-10,9.12a10,10,0,0,0,1.59.93,24.13,24.13,0,0,1,6.17,4.54l1.86,1.79m10,17h.05c.1,0,1.39-.46,2.92-1,13.7-5,25.44-8.79,40.63-13l2.68-.76-.39-.43c-.74-.8-4.38-4.08-6.27-5.64a128,128,0,0,0-11.44-8.46L142.79,101l-1.16,1.79a145.37,145.37,0,0,1-22.29,25.61c-3.09,2.85-3.25,3-3.1,3m-3.74,1.3h0c.07,0,1.49-1.66,3.15-3.62,4-4.71,9.75-11.94,13-16.25,2.72-3.62,7.26-10,7.2-10.08h0c-.22,0-6.57,3.2-10.64,5.37-6.1,3.28-15.75,8.79-16.38,9.35-.17.17,0,.53.73,2.06a27.83,27.83,0,0,1,2.81,11.94c0,.74,0,1.23.13,1.23m-26.58-3.14a24.91,24.91,0,0,0,2.81-2.14c2.78-2.22,7.56-5.84,10.71-8.09a9.89,9.89,0,0,0,1.92-1.59,36.07,36.07,0,0,0-5.7-3.85,16.16,16.16,0,0,0-1.72-.86,5.56,5.56,0,0,0-.67,1.69,63.8,63.8,0,0,1-2.78,6.93A61.08,61.08,0,0,1,86,129.32c-.1.15-.16.25-.12.25m-9.49,18.56c.06,0,1.36-.62,2.94-1.43q2.76-1.35,5.54-2.65c5.08-2.32,12.57-5.44,20.7-8.59l4.54-1.76-.06-.66a24,24,0,0,0-3.72-9.65c-.85-1.27-1.07-1.6-1.23-1.6H105c-.06,0-.69.8-1.39,1.63a133.38,133.38,0,0,1-24.94,23c-1.26.93-2.29,1.69-2.29,1.73h0M71.1,148l.05,0,2-1.26a110.26,110.26,0,0,0,20.6-16.61c2.58-2.62,6.36-6.9,6.23-7h0c-.31,0-11.41,7.53-16.24,11a11,11,0,0,0-3.32,3.15q-2.7,3.54-5.73,6.8a46.66,46.66,0,0,0-3.57,4M61.6,40.3a1,1,0,0,0-.71.29h0a.83.83,0,0,0-.18.25,4.32,4.32,0,0,0-.07,3.72,13.65,13.65,0,0,0,3.36,4C64.13,48.73,78.73,63,80.48,65c8,9.3,11.47,18.24,11.79,30.88.2,8.17-1.34,15.17-5.15,23.4C80.34,134.07,65.65,150.81,43.48,169a1,1,0,0,0-.24,1.26,1,1,0,0,0,.88.52,1,1,0,0,0,.32-.06l3.28-1.09a.94.94,0,0,0,.28-.15c2-1.49,4.71-3.1,11.66-6.92,15.59-8.54,33-16.31,54.63-24.45,31-11.66,81.8-25.28,110.93-29.73l3-.47a1,1,0,0,0,.76-.57,1,1,0,0,0-.06-.95l-.47-.73a104.19,104.19,0,0,0-6.73-9.48A80.62,80.62,0,0,0,197.9,76.35c-13.21-7.39-30-13-51.4-17.26-3.8-.75-12.55-2.28-20-3.42-11.89-1.83-23.94-3.8-35.8-5.84-3.84-.65-9.64-1.65-13.49-2.48A85.18,85.18,0,0,1,68.49,45l-.88-.33c-2.1-.78-4.49-1.66-5-3.6a1,1,0,0,0-.36-.58,1,1,0,0,0-.62-.22ZM87,65.38A71.93,71.93,0,0,0,74.84,52.1l1.12.31c1.46.4,2.93.8,4.39,1.17s2.53.65,3.17.82h0c.54,1.49,2.23,6.84,3.46,11Zm6.9,5.84a110.37,110.37,0,0,0-5.8-15.83c5.71,1.27,15.44,3.12,21.59,4.17-1.81,1-4.58,2.72-5.68,3.46a65.16,65.16,0,0,0-9.53,7.62l-.58.58Zm4.43,3.64c1.27-1.31,3.53-3.54,4.78-4.65,2.88-2.54,9.27-7.51,11.62-9.17.23.76.51,1.84.68,2.47A53,53,0,0,1,117,78.41c0,.48-.06,1.3-.1,1.9l-.61-.2c-3.28-1-8.89-2.69-14.3-4.22-1.53-.41-2.77-.77-3.63-1Zm24.12,4.48V79A47.56,47.56,0,0,0,119,61.13c3.74.59,13.2,2.24,18.2,3.21,3.16.61,6.78,1.35,9.12,1.86l-.36.16a144.6,144.6,0,0,0-21.86,11.88l-1.67,1.1Zm27.32,11A67.48,67.48,0,0,0,156,68.48h0c1.78.46,5.79,1.57,8.43,2.34a198.58,198.58,0,0,1,22.2,8.1,247.28,247.28,0,0,0-36.88,11.47ZM126.65,83.9c2.79-2,9.92-6.67,14.7-9.54,3.3-2,7.85-4.57,10.19-5.81-.14.8-.32,1.73-.5,2.46-1.16,4.79-4.32,12-8.26,18.91-.34.6-.64,1.11-.87,1.48l-1.14-.65a108.68,108.68,0,0,0-13.12-6.43l-1-.42ZM97,100.9a79.63,79.63,0,0,0-.7-18.22l0-.41c1.45.32,4,.94,5.82,1.45,2.94.82,7.85,2.44,10.22,3.3l-.76.66C107.38,91.15,103.19,95,98,100l-1,.92Zm53.23-3.79c1.88-.82,5.39-2.32,8.43-3.54,7.52-3.06,17.68-6.69,25.3-9,2.19-.69,4.38-1.34,5.94-1.79-.67,1.06-1.52,2.34-2.21,3.31-2,2.79-4.84,6.55-11.48,14.88-2.9,3.64-5.82,7.33-8.69,11l-1.06,1.33-.55.7-.14-.22a69.33,69.33,0,0,0-13.64-15.06c-.62-.52-1.26-1-1.9-1.56Zm23,15.75.41-.39c10.12-9.76,14.87-16.08,20.34-27.08.52-1.12.86-1.82,1.08-2.28l.9.51a111.19,111.19,0,0,1,22,16.5c1.14,1.12,3.25,3.28,4.62,4.73l-1.27.09a326.57,326.57,0,0,0-48.07,7.92Zm-58-5.18a70.7,70.7,0,0,0,6.09-17c1.41.62,4.4,2,7,3.34,2,1,4.53,2.33,6.08,3.17l-1.89,1c-5.85,2.9-11.65,6.1-17.23,9.49l-.07,0Zm-17-.73c1.62-1.57,5.59-5.14,9.1-8.14,2.07-1.79,5.37-4.47,7.52-6.17-.33,1.18-.72,2.55-1.07,3.65A80.43,80.43,0,0,1,108,109.57l-.81,1.41c-.36.61-.7,1.21-.94,1.63l-.15.24-1-.93a25.5,25.5,0,0,0-6.41-4.71l-.48-.26Zm22.08,22a146.2,146.2,0,0,0,22.19-25.55l.62-1,.79.51a124.27,124.27,0,0,1,11.34,8.39c1.55,1.27,4.09,3.54,5.42,4.8l-1.07.3c-14.76,4.09-26.26,7.75-39.29,12.51ZM109.9,118c2-1.27,10.07-5.86,15.78-8.94,2.27-1.21,5.1-2.66,7.25-3.74-1.48,2.08-3.48,4.86-5.07,7-3.34,4.43-9.15,11.7-13,16.2-.56.68-1.09,1.29-1.55,1.82a28.84,28.84,0,0,0-2.89-11.16c-.12-.25-.38-.77-.55-1.15Zm-20.28,7.5c.66-1.14,1.21-2.19,1.77-3.36a63.22,63.22,0,0,0,2.83-7,.06.06,0,0,0,0,0c.07-.23.13-.44.2-.62l.76.4a35,35,0,0,1,4.63,3c-.25.2-.58.44-1,.73-2.55,1.83-6.36,4.69-9.23,6.92ZM84.91,143a127.84,127.84,0,0,0,19.52-18.9l.41-.48.24-.3c.14.19.29.42.46.67a23,23,0,0,1,3.54,9.1l-3.83,1.49c-7.82,3-15.19,6.08-20.34,8.42Zm-8,0c1.47-1.67,2.9-3.4,4.24-5.16a10.21,10.21,0,0,1,3.1-2.94c2.6-1.87,6.84-4.8,10.31-7.15-.54.58-1.08,1.14-1.59,1.65A108.11,108.11,0,0,1,77,143Z" />
        </svg>
        </g>
         
        <g transform="translate(3300, 0)">
          <svg xmlns="http://www.w3.org/2000/svg" width="256" height="256" fill="none" viewBox="0 0 256 256"><rect width="256" height="256" fill="#CD6799" rx="60"/><g clip-path="url(#clip0_137_201)"><path fill="#fff" d="M200.107 139.163C193.133 139.199 187.073 140.879 181.998 143.361C180.136 139.674 178.274 136.388 177.945 133.978C177.58 131.167 177.142 129.451 177.58 126.092C178.018 122.733 179.99 117.951 179.953 117.586C179.917 117.22 179.515 115.505 175.499 115.468C171.483 115.432 168.015 116.235 167.613 117.294C167.211 118.352 166.445 120.762 165.934 123.245C165.24 126.896 157.901 139.93 153.703 146.757C152.352 144.092 151.184 141.755 150.928 139.893C150.563 137.082 150.125 135.366 150.563 132.007C151.001 128.648 152.973 123.865 152.936 123.5C152.9 123.135 152.498 121.419 148.482 121.383C144.466 121.346 140.997 122.149 140.596 123.208C140.194 124.267 139.756 126.75 138.916 129.159C138.077 131.569 128.329 153.329 125.773 158.951C124.459 161.835 123.327 164.135 122.524 165.705C122.524 165.705 122.487 165.815 122.378 165.997C121.684 167.348 121.282 168.078 121.282 168.078C121.282 168.078 121.282 168.078 121.282 168.115C120.735 169.101 120.15 170.013 119.858 170.013C119.639 170.013 119.238 167.385 119.931 163.807C121.392 156.249 124.86 144.493 124.824 144.092C124.824 143.873 125.481 141.828 122.56 140.769C119.712 139.71 118.69 141.463 118.434 141.463C118.179 141.463 117.996 142.084 117.996 142.084C117.996 142.084 121.173 128.867 111.936 128.867C106.167 128.867 98.2081 135.183 94.2651 140.879C91.7824 142.23 86.4885 145.114 80.8295 148.217C78.6755 149.422 76.4484 150.627 74.3673 151.759C74.2213 151.613 74.0753 151.43 73.9292 151.284C62.7573 139.345 42.0928 130.912 42.969 114.884C43.2976 109.042 45.3056 93.7083 82.655 75.0883C113.396 59.9368 137.858 64.1354 142.093 73.4454C148.153 86.7349 128.986 111.415 97.2224 114.993C85.1012 116.344 78.7485 111.671 77.1421 109.919C75.4626 108.093 75.2071 107.984 74.5864 108.349C73.5641 108.896 74.2213 110.539 74.5864 111.488C75.5356 113.971 79.4422 118.352 86.0504 120.506C91.892 122.405 106.094 123.464 123.29 116.819C142.531 109.371 157.573 88.6699 153.155 71.3278C148.738 53.7302 119.53 47.9251 91.892 57.7462C75.4626 63.5878 57.6459 72.7882 44.831 84.7634C29.6065 99.0022 27.1968 111.379 28.1826 116.563C31.724 134.964 57.0983 146.939 67.2479 155.811C66.7368 156.103 66.2622 156.359 65.8606 156.578C60.7857 159.097 41.4356 169.21 36.6163 179.908C31.1399 192.029 37.4926 200.718 41.6912 201.886C54.7251 205.501 68.1242 199.002 75.3166 188.268C82.509 177.534 81.6328 163.588 78.3104 157.199C78.2739 157.126 78.2374 157.053 78.1643 156.98C79.4787 156.213 80.8295 155.41 82.1439 154.643C84.7361 153.11 87.2917 151.686 89.4823 150.517C88.241 153.913 87.3283 157.965 86.8901 163.807C86.3425 170.671 89.1537 179.579 92.8412 183.084C94.4842 184.617 96.4192 184.654 97.6605 184.654C101.969 184.654 103.904 181.076 106.058 176.841C108.686 171.656 111.06 165.632 111.06 165.632C111.06 165.632 108.102 181.916 116.134 181.916C119.055 181.916 122.012 178.119 123.327 176.184C123.327 176.22 123.327 176.22 123.327 176.22C123.327 176.22 123.4 176.111 123.546 175.855C123.838 175.38 124.02 175.088 124.02 175.088C124.02 175.088 124.02 175.052 124.02 175.015C125.189 172.971 127.817 168.334 131.724 160.63C136.762 150.7 141.618 138.287 141.618 138.287C141.618 138.287 142.056 141.317 143.553 146.355C144.429 149.313 146.255 152.562 147.715 155.702C146.547 157.345 145.817 158.257 145.817 158.257C145.817 158.257 145.817 158.257 145.853 158.294C144.904 159.535 143.882 160.886 142.75 162.2C138.77 166.947 134.024 172.387 133.367 173.957C132.6 175.819 132.783 177.169 134.243 178.265C135.302 179.068 137.2 179.177 139.135 179.068C142.713 178.812 145.233 177.936 146.474 177.388C148.409 176.695 150.673 175.636 152.79 174.066C156.697 171.182 159.07 167.056 158.851 161.616C158.741 158.622 157.755 155.629 156.551 152.817C156.916 152.306 157.244 151.795 157.609 151.284C163.78 142.266 168.562 132.372 168.562 132.372C168.562 132.372 169 135.402 170.497 140.441C171.227 142.996 172.724 145.771 174.039 148.473C168.234 153.183 164.656 158.659 163.378 162.237C161.078 168.882 162.867 171.875 166.262 172.569C167.796 172.898 169.986 172.168 171.593 171.474C173.637 170.817 176.047 169.685 178.347 168.005C182.253 165.121 186.014 161.105 185.795 155.665C185.685 153.183 185.028 150.736 184.115 148.363C189.044 146.319 195.397 145.187 203.502 146.136C220.881 148.181 224.313 159.024 223.655 163.588C222.998 168.151 219.347 170.634 218.142 171.401C216.938 172.168 216.536 172.423 216.646 172.971C216.792 173.774 217.376 173.737 218.398 173.591C219.822 173.336 227.525 169.904 227.854 161.507C228.402 150.773 218.179 139.053 200.107 139.163ZM66.0431 184.362C60.2746 190.641 52.2425 193.015 48.7741 191.007C45.0501 188.852 46.5105 179.579 53.5933 172.934C57.9015 168.882 63.4509 165.121 67.1384 162.821C67.9781 162.31 69.2195 161.58 70.7164 160.667C70.9719 160.521 71.118 160.448 71.118 160.448C71.41 160.265 71.7021 160.083 71.9942 159.9C74.5864 169.393 72.1037 177.754 66.0431 184.362ZM108.029 155.811C106.021 160.704 101.823 173.226 99.2669 172.533C97.0763 171.948 95.7255 162.456 98.8288 153.073C100.399 148.363 103.721 142.741 105.656 140.55C108.796 137.045 112.264 135.877 113.104 137.301C114.163 139.163 109.271 152.744 108.029 155.811ZM142.677 172.387C141.837 172.825 141.034 173.117 140.669 172.898C140.413 172.752 141.034 172.168 141.034 172.168C141.034 172.168 145.379 167.494 147.095 165.377C148.08 164.135 149.249 162.675 150.49 161.032C150.49 161.178 150.49 161.361 150.49 161.507C150.49 167.093 145.087 170.853 142.677 172.387ZM169.402 166.289C168.781 165.851 168.891 164.391 170.972 159.827C171.775 158.038 173.674 155.045 176.923 152.16C177.288 153.329 177.544 154.46 177.507 155.519C177.471 162.566 172.432 165.194 169.402 166.289Z"/></g><defs><clipPath id="clip0_137_201"><rect width="200" height="149.909" fill="#fff" transform="translate(28 53)"/></clipPath></defs></svg>
        </g>
         
        <g transform="translate(3600, 0)">
          <svg xmlns="http://www.w3.org/2000/svg" width="256" height="256" fill="none" viewBox="0 0 256 256"><rect width="256" height="256" fill="#F4F2ED" rx="60"/><path fill="#00D8FF" d="M128.001 146.951C138.305 146.951 146.657 138.598 146.657 128.295C146.657 117.992 138.305 109.639 128.001 109.639C117.698 109.639 109.345 117.992 109.345 128.295C109.345 138.598 117.698 146.951 128.001 146.951Z"/><path fill-rule="evenodd" stroke="#00D8FF" stroke-width="8.911" d="M128.002 90.3633C153.05 90.3633 176.319 93.9575 193.864 99.9976C215.003 107.275 228 118.306 228 128.295C228 138.704 214.226 150.423 191.525 157.944C174.363 163.63 151.779 166.598 128.002 166.598C103.624 166.598 80.5389 163.812 63.1834 157.881C41.2255 150.376 28 138.506 28 128.295C28 118.387 40.4096 107.441 61.2515 100.175C78.8617 94.0353 102.705 90.3633 127.998 90.3633H128.002Z" clip-rule="evenodd"/><path fill-rule="evenodd" stroke="#00D8FF" stroke-width="8.911" d="M94.9811 109.438C107.495 87.7402 122.232 69.3783 136.23 57.1971C153.094 42.5206 169.144 36.7728 177.796 41.7623C186.813 46.9623 190.084 64.7496 185.259 88.1712C181.614 105.879 172.9 126.925 161.021 147.523C148.842 168.641 134.897 187.247 121.09 199.315C103.619 214.587 86.7284 220.114 77.8833 215.013C69.3003 210.067 66.0181 193.846 70.1356 172.161C73.6145 153.838 82.3451 131.349 94.977 109.438L94.9811 109.438Z" clip-rule="evenodd"/><path fill-rule="evenodd" stroke="#00D8FF" stroke-width="8.911" d="M95.0123 147.578C82.4633 125.904 73.9194 103.962 70.3531 85.7517C66.0602 63.8109 69.0954 47.0355 77.7401 42.0315C86.7485 36.8163 103.792 42.866 121.674 58.7437C135.194 70.7479 149.077 88.8052 160.99 109.383C173.204 130.481 182.358 151.856 185.919 169.844C190.425 192.608 186.778 210.001 177.941 215.116C169.367 220.08 153.676 214.825 136.945 200.427C122.809 188.263 107.685 169.468 95.0123 147.578Z" clip-rule="evenodd"/></svg>
        </g>
         
        <g transform="translate(3900, 0)">
          <svg xmlns="http://www.w3.org/2000/svg" width="256" height="256" fill="none" viewBox="0 0 256 256"><rect width="256" height="256" fill="#F03C2E" rx="60"/><g clip-path="url(#clip0_7_283)"><path fill="#fff" d="M224.225 119.094L136.906 31.775C135.711 30.5787 134.291 29.6298 132.729 28.9824C131.166 28.3349 129.491 28.0017 127.8 28.0017C126.109 28.0017 124.434 28.3349 122.871 28.9824C121.309 29.6298 119.889 30.5787 118.694 31.775L100.569 49.9L123.569 72.9C128.919 71.025 135.044 72.3062 139.306 76.5687C141.335 78.6014 142.752 81.1638 143.394 83.9632C144.036 86.7626 143.878 89.6862 142.937 92.4L165.106 114.569C170.469 112.719 176.656 113.912 180.937 118.206C182.361 119.63 183.49 121.32 184.26 123.18C185.03 125.04 185.426 127.033 185.426 129.046C185.425 131.059 185.029 133.052 184.258 134.912C183.487 136.771 182.358 138.461 180.934 139.884C179.511 141.308 177.821 142.436 175.961 143.206C174.101 143.977 172.108 144.373 170.095 144.372C168.082 144.372 166.088 143.975 164.229 143.205C162.369 142.434 160.679 141.305 159.256 139.881C154.756 135.381 153.644 128.756 155.919 123.212L135.244 102.537V156.944C136.745 157.686 138.116 158.666 139.306 159.844C140.729 161.267 141.858 162.956 142.629 164.816C143.399 166.675 143.795 168.668 143.795 170.681C143.795 172.694 143.399 174.687 142.629 176.546C141.858 178.406 140.729 180.096 139.306 181.519C137.883 182.942 136.193 184.071 134.334 184.841C132.474 185.611 130.481 186.008 128.469 186.008C126.456 186.008 124.463 185.611 122.604 184.841C120.744 184.071 119.054 182.942 117.631 181.519C116.206 180.096 115.076 178.407 114.305 176.548C113.533 174.688 113.136 172.694 113.136 170.681C113.136 168.668 113.533 166.675 114.305 164.815C115.076 162.955 116.206 161.266 117.631 159.844C119.112 158.369 120.756 157.25 122.65 156.5V101.587C120.825 100.837 119.112 99.7312 117.631 98.2437C115.479 96.0943 114.016 93.3526 113.428 90.3684C112.841 87.3841 113.155 84.2924 114.331 81.4875L91.6437 58.8125L31.7687 118.625C30.5716 119.821 29.6219 121.241 28.9739 122.804C28.3259 124.367 27.9924 126.042 27.9924 127.734C27.9924 129.426 28.3259 131.102 28.9739 132.665C29.6219 134.228 30.5716 135.648 31.7687 136.844L119.094 224.156C120.289 225.352 121.709 226.301 123.271 226.949C124.834 227.596 126.509 227.929 128.2 227.929C129.891 227.929 131.566 227.596 133.129 226.949C134.691 226.301 136.111 225.352 137.306 224.156L224.225 137.375C225.422 136.179 226.372 134.759 227.02 133.196C227.668 131.633 228.001 129.958 228.001 128.266C228.001 126.574 227.668 124.898 227.02 123.335C226.372 121.772 225.422 120.352 224.225 119.156"/></g><defs><clipPath id="clip0_7_283"><rect width="200" height="200" fill="#fff" transform="translate(28 28)"/></clipPath></defs></svg>
        </g>
         
        <g transform="translate(4200, 0)">
          <svg width="256" height="256" viewBox="0 0 256 256" fill="none" xmlns="http://www.w3.org/2000/svg">
<rect width="256" height="256" rx="60" fill="#F4F2ED"/>
<path d="M128.001 30C72.7791 30 28 74.7708 28 130.001C28 174.184 56.6533 211.668 96.3867 224.891C101.384 225.817 103.219 222.722 103.219 220.081C103.219 217.696 103.126 209.819 103.083 201.463C75.2631 207.512 69.3927 189.664 69.3927 189.664C64.8437 178.105 58.2894 175.032 58.2894 175.032C49.2163 168.825 58.9733 168.953 58.9733 168.953C69.0151 169.658 74.3026 179.258 74.3026 179.258C83.2217 194.546 97.6965 190.126 103.403 187.571C104.301 181.107 106.892 176.696 109.752 174.199C87.5405 171.67 64.1913 163.095 64.1913 124.778C64.1913 113.86 68.0977 104.939 74.4947 97.9362C73.4564 95.4175 70.0335 85.2465 75.4635 71.4722C75.4635 71.4722 83.8609 68.7845 102.971 81.7226C110.948 79.5069 119.502 78.3958 128.001 78.3577C136.499 78.3958 145.061 79.5069 153.052 81.7226C172.139 68.7845 180.525 71.4722 180.525 71.4722C185.968 85.2465 182.544 95.4175 181.505 97.9362C187.917 104.939 191.797 113.86 191.797 124.778C191.797 163.187 168.403 171.644 146.135 174.119C149.722 177.223 152.918 183.308 152.918 192.638C152.918 206.018 152.802 216.787 152.802 220.081C152.802 222.742 154.602 225.86 159.671 224.878C199.383 211.64 228 174.169 228 130.001C228 74.7708 183.227 30 128.001 30ZM65.4536 172.453C65.2333 172.95 64.4517 173.099 63.7396 172.758C63.0143 172.432 62.6069 171.754 62.8421 171.256C63.0574 170.744 63.8406 170.602 64.5643 170.945C65.2913 171.271 65.7053 171.955 65.4536 172.453ZM70.3725 176.842C69.8956 177.285 68.9633 177.079 68.3307 176.38C67.6766 175.683 67.554 174.751 68.0376 174.302C68.5294 173.86 69.4336 174.067 70.0893 174.764C70.7434 175.47 70.8709 176.395 70.3725 176.842ZM73.7471 182.458C73.1344 182.884 72.1325 182.485 71.5132 181.595C70.9004 180.706 70.9004 179.64 71.5264 179.212C72.1474 178.785 73.1344 179.169 73.762 180.052C74.373 180.956 74.373 182.023 73.7471 182.458ZM79.4542 188.962C78.9061 189.566 77.7386 189.404 76.8841 188.579C76.0098 187.773 75.7663 186.629 76.3161 186.024C76.8709 185.418 78.045 185.589 78.9061 186.407C79.7738 187.211 80.0387 188.364 79.4542 188.962ZM86.8301 191.157C86.5883 191.941 85.4639 192.297 84.3312 191.964C83.2002 191.621 82.46 190.704 82.6885 189.912C82.9237 189.124 84.053 188.753 85.194 189.109C86.3234 189.45 87.0652 190.361 86.8301 191.157ZM95.2242 192.089C95.2523 192.913 94.2919 193.597 93.1029 193.612C91.9073 193.639 90.9402 192.971 90.9269 192.16C90.9269 191.327 91.8659 190.65 93.0615 190.63C94.2505 190.607 95.2242 191.269 95.2242 192.089ZM103.47 191.773C103.613 192.577 102.787 193.404 101.606 193.624C100.445 193.836 99.3702 193.339 99.2229 192.541C99.0788 191.716 99.92 190.89 101.079 190.676C102.262 190.471 103.32 190.955 103.47 191.773Z" fill="#161614"/>
</svg>

        </g>
         
        <g transform="translate(0, 300)">
          <svg xmlns="http://www.w3.org/2000/svg" width="256" height="256" fill="none" viewBox="0 0 256 256"><g clip-path="url(#clip0_7_144)"><path fill="#654FF0" d="M157.281 0C157.281 0.451765 157.281 0.903529 157.281 1.38039C157.281 17.5937 144.138 30.7325 127.929 30.7325C111.716 30.7325 98.5767 17.5895 98.5767 1.38039C98.5767 0.903529 98.5767 0.451765 98.5767 0L0 0V256H256V0H157.281Z"/><path fill="#fff" d="M59.4656 137.96H76.4318L88.0146 199.647H88.2237L102.145 137.96H118.015L130.589 200.404H130.836L144.038 137.96H160.678L139.056 228.601H122.219L109.749 166.914H109.423L96.0752 228.601H78.9249L59.4656 137.96ZM179.806 137.96H206.553L233.115 228.601H215.613L209.836 208.431H179.367L174.908 228.601H157.862L179.806 137.96ZM189.988 160.301L182.588 193.556H205.62L197.124 160.301H189.988Z"/></g><defs><clipPath id="clip0_7_144"><rect width="256" height="256" fill="#fff" rx="60"/></clipPath></defs></svg>
        </g>
         
        <g transform="translate(300, 300)">
          <svg width="256" height="256" viewBox="0 0 256 256" fill="none" xmlns="http://www.w3.org/2000/svg">
<rect width="256" height="256" rx="60" fill="#F4F2ED"/>
<mask id="mask0_217_245" style="mask-type:alpha" maskUnits="userSpaceOnUse" x="28" y="28" width="200" height="200">
<path d="M64.6656 197.166L31.3344 172.166C30.2952 171.394 29.4519 170.389 28.8727 169.23C28.2935 168.072 27.9946 166.795 28.0001 165.5V90.5001C27.9946 89.2054 28.2935 87.9276 28.8727 86.7698C29.4519 85.6119 30.2952 84.6065 31.3344 83.8345L64.6656 58.8345C63.7702 59.6752 63.0936 60.7218 62.6944 61.8835C62.2952 63.0451 62.1856 64.2866 62.375 65.5001V190.5C62.1856 191.714 62.2952 192.955 62.6944 194.117C63.0936 195.278 63.7702 196.325 64.6656 197.166Z" fill="white"/>
<path d="M224.29 62.7093C222.917 61.8073 221.308 61.3291 219.665 61.3344C218.601 61.3258 217.544 61.5273 216.558 61.9274C215.571 62.3274 214.673 62.9181 213.915 63.6656L213.334 64.25L146.834 128L110.04 163.291L75.9999 195.915L75.4156 196.5C74.6583 197.248 73.7604 197.84 72.7736 198.241C71.7868 198.641 70.7305 198.843 69.6656 198.834C67.8627 198.83 66.1092 198.246 64.6656 197.165L31.3344 172.166C33.0279 173.437 35.1424 174.016 37.2476 173.784C39.3528 173.552 41.2902 172.526 42.6656 170.915L79.6656 127.959L110.04 92.7093L163.25 30.9156C164.022 30.0005 164.985 29.2654 166.072 28.7617C167.159 28.2581 168.343 27.9981 169.541 28C171.184 27.9947 172.792 28.4729 174.165 29.375L224.29 62.7093Z" fill="white"/>
<path d="M224.29 193.29L174.291 226.624C172.589 227.735 170.545 228.195 168.532 227.92C166.52 227.644 164.674 226.651 163.334 225.125L110.04 163.291L79.6656 127.959L42.6656 85.0405C41.278 83.4462 39.3387 82.4358 37.2369 82.2121C35.1352 81.9883 33.0266 82.5679 31.3344 83.8344L64.6656 58.8344C66.1092 57.7545 67.8627 57.1692 69.6656 57.1656C70.7305 57.1566 71.7868 57.3582 72.7736 57.7588C73.7604 58.1595 74.6583 58.7512 75.4156 59.5L75.9999 60.0843L110.04 92.7094L146.834 128L213.334 191.75L213.915 192.334C214.673 193.082 215.571 193.672 216.558 194.072C217.544 194.472 218.601 194.674 219.665 194.665C221.308 194.671 222.917 194.193 224.29 193.29Z" fill="white"/>
<path d="M228 69.6655V186.334C228.001 187.709 227.663 189.064 227.016 190.276C226.369 191.49 225.433 192.525 224.29 193.29L174.291 226.624C175.433 225.859 176.369 224.823 177.017 223.609C177.663 222.395 178 221.041 177.999 219.665V36.3343C177.981 34.9486 177.622 33.5889 176.953 32.3751C176.284 31.1613 175.327 30.1309 174.165 29.375L224.29 62.7093C225.429 63.4774 226.364 64.5131 227.011 65.7258C227.658 66.9385 227.997 68.2911 228 69.6655Z" fill="white"/>
</mask>
<g mask="url(#mask0_217_245)">
<path d="M64.6656 197.165L31.3344 172.166C30.2952 171.394 29.4519 170.387 28.8727 169.23C28.2935 168.072 27.9946 166.794 28.0001 165.5V90.4999C27.9946 89.2052 28.2935 87.9273 28.8727 86.7696C29.4519 85.6117 30.2952 84.6062 31.3344 83.8342L64.6656 58.8342C63.7702 59.675 63.0936 60.7216 62.6944 61.8832C62.2952 63.0449 62.1856 64.2863 62.375 65.4999V190.5C62.1856 191.714 62.2952 192.955 62.6944 194.117C63.0936 195.278 63.7702 196.324 64.6656 197.165Z" fill="#5E438F"/>
<g filter="url(#filter0_dd_217_245)">
<path d="M224.289 62.7093C222.917 61.8073 221.308 61.3291 219.665 61.3344C218.601 61.3258 217.544 61.5273 216.557 61.9274C215.571 62.3274 214.673 62.9181 213.915 63.6656L213.334 64.25L177.914 98.2093L146.834 128L110.04 163.291L75.9993 195.915L75.4151 196.5C74.6577 197.248 73.7598 197.84 72.7731 198.241C71.7862 198.641 70.73 198.843 69.665 198.834C67.8622 198.83 66.1087 198.246 64.6651 197.165L31.3339 172.166C33.0272 173.437 35.1418 174.016 37.247 173.784C39.3522 173.552 41.2897 172.526 42.6651 170.915L61.3338 149.25L79.665 127.959L110.04 92.7093L163.249 30.9156C164.022 30.0005 164.985 29.2654 166.072 28.7617C167.158 28.2581 168.343 27.9981 169.539 28C171.183 27.9947 172.791 28.4729 174.165 29.375L224.289 62.7093Z" fill="url(#paint0_linear_217_245)"/>
</g>
<g filter="url(#filter1_dd_217_245)">
<path d="M224.289 193.29L174.29 226.625C172.59 227.736 170.545 228.195 168.532 227.92C166.519 227.644 164.674 226.652 163.334 225.125L110.04 163.291L79.665 127.959L61.3338 106.709L42.6651 85.0407C41.2774 83.4464 39.3381 82.436 37.2364 82.2122C35.1347 81.9884 33.0261 82.5681 31.3339 83.8344L64.6651 58.8345C66.1087 57.7546 67.8622 57.1693 69.665 57.1658C70.73 57.1568 71.7862 57.3584 72.7731 57.759C73.7598 58.1596 74.6577 58.7514 75.4151 59.5002L75.9993 60.0845L110.04 92.7094L146.834 128L177.958 157.835L213.334 191.75L213.915 192.335C214.673 193.082 215.571 193.672 216.557 194.072C217.544 194.472 218.601 194.674 219.665 194.665C221.308 194.671 222.917 194.192 224.289 193.29Z" fill="url(#paint1_linear_217_245)"/>
</g>
<g filter="url(#filter2_dd_217_245)">
<path d="M228 69.6653V186.333C228.001 187.709 227.663 189.063 227.016 190.277C226.369 191.489 225.433 192.525 224.29 193.29L174.29 226.624C175.433 225.859 176.369 224.823 177.015 223.609C177.663 222.395 178 221.041 177.999 219.665V36.3341C177.981 34.9485 177.622 33.5886 176.953 32.3748C176.284 31.161 175.327 30.1307 174.165 29.3748L224.29 62.709C225.429 63.4771 226.363 64.5129 227.011 65.7256C227.657 66.9383 227.997 68.291 228 69.6653Z" fill="url(#paint2_linear_217_245)"/>
</g>
</g>
<defs>
<filter id="filter0_dd_217_245" x="26.1529" y="24.1143" width="203.317" height="181.196" filterUnits="userSpaceOnUse" color-interpolation-filters="sRGB">
<feFlood flood-opacity="0" result="BackgroundImageFix"/>
<feColorMatrix in="SourceAlpha" type="matrix" values="0 0 0 0 0 0 0 0 0 0 0 0 0 0 0 0 0 0 127 0" result="hardAlpha"/>
<feOffset dy="0.246095"/>
<feGaussianBlur stdDeviation="0.246095"/>
<feColorMatrix type="matrix" values="0 0 0 0 0 0 0 0 0 0 0 0 0 0 0 0 0 0 0.24 0"/>
<feBlend mode="normal" in2="BackgroundImageFix" result="effect1_dropShadow_217_245"/>
<feColorMatrix in="SourceAlpha" type="matrix" values="0 0 0 0 0 0 0 0 0 0 0 0 0 0 0 0 0 0 127 0" result="hardAlpha"/>
<feOffset dy="1.29524"/>
<feGaussianBlur stdDeviation="2.59048"/>
<feColorMatrix type="matrix" values="0 0 0 0 0 0 0 0 0 0 0 0 0 0 0 0 0 0 0.22 0"/>
<feBlend mode="normal" in2="effect1_dropShadow_217_245" result="effect2_dropShadow_217_245"/>
<feBlend mode="normal" in="SourceGraphic" in2="effect2_dropShadow_217_245" result="shape"/>
</filter>
<filter id="filter1_dd_217_245" x="26.1529" y="53.2798" width="203.317" height="181.194" filterUnits="userSpaceOnUse" color-interpolation-filters="sRGB">
<feFlood flood-opacity="0" result="BackgroundImageFix"/>
<feColorMatrix in="SourceAlpha" type="matrix" values="0 0 0 0 0 0 0 0 0 0 0 0 0 0 0 0 0 0 127 0" result="hardAlpha"/>
<feOffset dy="0.246095"/>
<feGaussianBlur stdDeviation="0.246095"/>
<feColorMatrix type="matrix" values="0 0 0 0 0 0 0 0 0 0 0 0 0 0 0 0 0 0 0.24 0"/>
<feBlend mode="normal" in2="BackgroundImageFix" result="effect1_dropShadow_217_245"/>
<feColorMatrix in="SourceAlpha" type="matrix" values="0 0 0 0 0 0 0 0 0 0 0 0 0 0 0 0 0 0 127 0" result="hardAlpha"/>
<feOffset dy="1.29524"/>
<feGaussianBlur stdDeviation="2.59048"/>
<feColorMatrix type="matrix" values="0 0 0 0 0 0 0 0 0 0 0 0 0 0 0 0 0 0 0.22 0"/>
<feBlend mode="normal" in2="effect1_dropShadow_217_245" result="effect2_dropShadow_217_245"/>
<feBlend mode="normal" in="SourceGraphic" in2="effect2_dropShadow_217_245" result="shape"/>
</filter>
<filter id="filter2_dd_217_245" x="158.622" y="13.8319" width="84.9208" height="228.335" filterUnits="userSpaceOnUse" color-interpolation-filters="sRGB">
<feFlood flood-opacity="0" result="BackgroundImageFix"/>
<feColorMatrix in="SourceAlpha" type="matrix" values="0 0 0 0 0 0 0 0 0 0 0 0 0 0 0 0 0 0 127 0" result="hardAlpha"/>
<feOffset/>
<feGaussianBlur stdDeviation="0.129524"/>
<feColorMatrix type="matrix" values="0 0 0 0 0 0 0 0 0 0 0 0 0 0 0 0 0 0 0.24 0"/>
<feBlend mode="normal" in2="BackgroundImageFix" result="effect1_dropShadow_217_245"/>
<feColorMatrix in="SourceAlpha" type="matrix" values="0 0 0 0 0 0 0 0 0 0 0 0 0 0 0 0 0 0 127 0" result="hardAlpha"/>
<feOffset/>
<feGaussianBlur stdDeviation="7.77143"/>
<feColorMatrix type="matrix" values="0 0 0 0 0 0 0 0 0 0 0 0 0 0 0 0 0 0 0.3 0"/>
<feBlend mode="normal" in2="effect1_dropShadow_217_245" result="effect2_dropShadow_217_245"/>
<feBlend mode="normal" in="SourceGraphic" in2="effect2_dropShadow_217_245" result="shape"/>
</filter>
<linearGradient id="paint0_linear_217_245" x1="190.499" y1="28" x2="41.9893" y2="177.471" gradientUnits="userSpaceOnUse">
<stop stop-color="#7252AA"/>
<stop offset="1" stop-color="#7252AA"/>
</linearGradient>
<linearGradient id="paint1_linear_217_245" x1="46.7501" y1="64.4571" x2="186.332" y2="220.705" gradientUnits="userSpaceOnUse">
<stop stop-color="#AE7FE2"/>
<stop offset="1" stop-color="#9A70D4"/>
</linearGradient>
<linearGradient id="paint2_linear_217_245" x1="200.49" y1="25.3528" x2="200.49" y2="226.456" gradientUnits="userSpaceOnUse">
<stop stop-color="#D59DFF"/>
<stop offset="1" stop-color="#C18EF1"/>
</linearGradient>
</defs>
</svg>

        </g>
         
        <g transform="translate(600, 300)">
          <svg xmlns="http://www.w3.org/2000/svg" width="256" height="256" fill="none" viewBox="0 0 256 256"><rect width="256" height="256" fill="#F4F2ED" rx="60"/><path fill="#2489CA" d="M33.7158 100.208C33.7158 100.208 28.9814 96.795 34.6627 92.2381L47.8994 80.402C47.8994 80.402 51.6869 76.4172 55.6915 79.8891L177.84 172.368V216.714C177.84 216.714 177.781 223.678 168.844 222.908L33.7158 100.208Z"/><path fill="#1070B3" d="M65.1997 128.792L33.7157 157.415C33.7157 157.415 30.4805 159.822 33.7157 164.123L48.3333 177.418C48.3333 177.418 51.8052 181.147 56.9341 176.905L90.3119 151.596L65.1997 128.792Z"/><path fill="#0877B9" d="M120.474 129.029L178.215 84.9391L177.84 40.83C177.84 40.83 175.374 31.2033 167.148 36.2139L90.312 106.145L120.474 129.029Z"/><path fill="#3C99D4" d="M168.844 222.968C172.198 226.4 176.262 225.276 176.262 225.276L221.259 203.103C227.019 199.177 226.21 194.305 226.21 194.305V61.8982C226.21 56.0788 220.252 54.0667 220.252 54.0667L181.253 35.267C172.731 30 167.148 36.2139 167.148 36.2139C167.148 36.2139 174.328 31.0455 177.84 40.83V215.905C177.84 217.109 177.583 218.292 177.071 219.358C176.045 221.429 173.816 223.362 168.47 222.553L168.844 222.968Z"/></svg>
        </g>
        
  </svg>
  