<svg version="1.1" xmlns="http://www.w3.org/2000/svg" xmlns:xlink="http://www.w3.org/1999/xlink" width="48" height="48" fill="none" viewBox="0 0 256 256">
<path fill="#68217A" d="M60,0h136c33.1,0,60,26.9,60,60v136c0,33.1-26.9,60-60,60H60c-33.1,0-60-26.9-60-60V60C0,26.9,26.9,0,60,0z"/>
<path fill="#fff" d="M137.4,138.7c-1.2,1.3-2.4,2.7-3.8,4.3c-13.3-12.1-27.9-17-44.8-13.8c-11.9,2.2-21.6,8.3-29.2,17.7
	c-15.2,18.9-13.6,48.6,3.7,66.3c15.9,16.3,45.4,22.2,69.8,0.7c1.3,1.2,2.6,2.4,4,3.5c-10.1,13.5-33.3,20.6-54.4,14.9
	c-23.4-6.3-39.4-27.4-40.3-52.9c-0.9-24.4,14-46.3,36.7-54.5C100.2,117.2,125,123.9,137.4,138.7z"/>
<path fill="#40CCF4" d="M97.9,159c9.6-0.9,17.8,6.6,17.5,19.3c-0.2,12-7.2,19.6-18.4,19.5c-10.4-0.1-17.6-8-17.6-19.3
	C79.5,166.7,86.9,159,97.9,159z"/>
<path fill="#fff" d="M210.3,195.9c0,1.4,0,3.2,0,5.5c-8.4,5.9-18,7.1-27.6,3.6c-9.3-3.4-12.9-11.7-13.9-21.1
	c-0.9-9.2,0.7-17.8,7.1-24.9c9.8-10.9,27.4-9.5,34.2,2.8c1.2,2.2,2.1,4.7,2.5,7.2c0.6,3.5,0.7,7.1,1,11.4c-12.7,0-25.1,0-37.7,0
	c0.1,6.2,1.5,11.1,5.1,15.3c3.7,4.3,8.7,5.6,14,4.6C200.2,199.4,205.1,197.5,210.3,195.9z M176.5,174.1c10,0,19.6,0,29.2,0
	c0.4-9.4-4.3-15.5-12.2-16.2C184.7,157.1,177.7,163.6,176.5,174.1z"/>
<path fill="#fff" d="M137.7,153.1c2,0,3.7,0,6,0c0.1,2.7,0.3,5.3,0.4,8.9c4.8-7.2,10.1-12.4,19.2-9c0,2.1,0,4.1,0,6.1
	c-0.4,0.1-0.7,0.3-0.9,0.3c-10-1.8-16.5,2.9-17.4,13.3c-0.7,8.8-0.7,17.7-1,26.6c-0.1,1.8,0,3.7,0,5.8c-2.3,0-4.3,0-6.2,0
	C137.7,187.6,137.7,170.5,137.7,153.1z"/>
<path fill="#fff" d="M84.6,29.6c0,11.1,0,21.2,0,32.2c10.6,0,20.9,0,31.6,0c0,2.8,0,4.7,0,7.5c-10.5,0-20.9,0-31.5,0
	c0,11.3,0,21.9,0,33.2c11.9,0,23.7,0,35.7,0c0,2.8,0,4.8,0,7.1c-14.7,0-29.4,0-44.4,0c0-29.2,0-58.1,0-87.4c13.9,0,27.8,0,42.2,0
	c0,2.3,0,4.6,0,7.4C107.1,29.6,96.1,29.6,84.6,29.6z"/>
<path fill="#fff" d="M137.5,22.9c14.2,0,28.1,0,42.5,0c0,2.1,0,4.3,0,6.9c-11.4,0-22.4,0-33.7,0c0,11.2,0,22,0,33.4
	c10.3,0,20.7,0,31.3,0c0.2,2.4,0.3,4.2,0.6,6.9c-10.8,0-21.3,0-32.3,0c0,13.7,0,26.5,0,39.6c-3,0-5.4,0-8.3,0
	C137.5,81,137.5,52.1,137.5,22.9z"/>
</svg>
